<svg aria-hidden="true" style="position: absolute; width: 0; height: 0; overflow: hidden;" version="1.1" 
    xmlns="http://www.w3.org/2000/svg" 
    xmlns:xlink="http://www.w3.org/1999/xlink">
    <defs>
        <symbol id="icon-clipboard-text" viewBox="0 0 32 32">
            <title>clipboard-text</title>
            <path d="M13 5v-1.002c0-1.1 0.898-1.998 2.005-1.998h0.99c1.111 0 2.005 0.895 2.005 1.998v1.002h2.004c0.551 0 0.996 0.447 0.996 0.999v1.002c0 0.556-0.446 0.999-0.996 0.999h-9.009c-0.551 0-0.996-0.447-0.996-0.999v-1.002c0-0.556 0.446-0.999 0.996-0.999h2.004zM12 4h-0.997c-1.104 0-2 0.891-2.003 2h-1.003c-1.103 0-1.997 0.89-1.997 2.004v20.993c0 1.107 0.891 2.004 1.997 2.004h15.005c1.103 0 1.997-0.89 1.997-2.004v-20.993c0-1.107-0.891-2.004-1.997-2.004h-1.003c-0.003-1.105-0.895-2-2.003-2h-0.997c-0.001-1.657-1.35-3-3.009-3h-0.982c-1.661 0-3.008 1.338-3.009 3v0 0zM22 7h1c0.545 0 1 0.449 1 1.003v20.994c0 0.564-0.448 1.003-1 1.003h-15c-0.545 0-1-0.449-1-1.003v-20.994c0-0.564 0.448-1.003 1-1.003h1c0.003 1.105 0.895 2 2.003 2h8.994c1.104 0 2-0.891 2.003-2v0 0zM15.5 5c0.276 0 0.5-0.224 0.5-0.5s-0.224-0.5-0.5-0.5c-0.276 0-0.5 0.224-0.5 0.5s0.224 0.5 0.5 0.5v0zM9 13v1h13v-1h-13zM9 16v1h13v-1h-13zM9 19v1h13v-1h-13zM9 22v1h13v-1h-13zM9 25v1h13v-1h-13z"></path>
        </symbol>
        <symbol id="icon-clipboard-text1" viewBox="0 0 32 32">
            <title>clipboard-text1</title>
            <path d="M13 5v-1.002c0-1.1 0.898-1.998 2.005-1.998h0.99c1.111 0 2.005 0.895 2.005 1.998v1.002h2.004c0.551 0 0.996 0.447 0.996 0.999v1.002c0 0.556-0.446 0.999-0.996 0.999h-9.009c-0.551 0-0.996-0.447-0.996-0.999v-1.002c0-0.556 0.446-0.999 0.996-0.999h2.004zM22 6h1.003c1.107 0 1.997 0.897 1.997 2.004v20.993c0 1.114-0.894 2.004-1.997 2.004h-15.005c-1.107 0-1.997-0.897-1.997-2.004v-20.993c0-1.114 0.894-2.004 1.997-2.004h1.003c0 0.002 0 0.003 0 0.005v0.99c0 1.107 0.894 2.005 2.003 2.005h8.994c1.106 0 2.003-0.894 2.003-2.005v-0.99c0-0.002 0-0.003 0-0.005v0 0zM15.5 5c0.276 0 0.5-0.224 0.5-0.5s-0.224-0.5-0.5-0.5c-0.276 0-0.5 0.224-0.5 0.5s0.224 0.5 0.5 0.5v0zM9 13v1h13v-1h-13zM9 16v1h13v-1h-13zM9 19v1h13v-1h-13zM9 22v1h13v-1h-13zM9 25v1h13v-1h-13z"></path>
        </symbol>
        <symbol id="icon-clipboard-list" viewBox="0 0 32 32">
            <title>clipboard-list</title>
            <path d="M13 5v-1.002c0-1.1 0.898-1.998 2.005-1.998h0.99c1.111 0 2.005 0.895 2.005 1.998v1.002h2.004c0.551 0 0.996 0.447 0.996 0.999v1.002c0 0.556-0.446 0.999-0.996 0.999h-9.009c-0.551 0-0.996-0.447-0.996-0.999v-1.002c0-0.556 0.446-0.999 0.996-0.999h2.004zM12 4h-0.997c-1.104 0-2 0.891-2.003 2h-1.003c-1.103 0-1.997 0.89-1.997 2.004v20.993c0 1.107 0.891 2.004 1.997 2.004h15.005c1.103 0 1.997-0.89 1.997-2.004v-20.993c0-1.107-0.891-2.004-1.997-2.004h-1.003c-0.003-1.105-0.895-2-2.003-2h-0.997c-0.001-1.657-1.35-3-3.009-3h-0.982c-1.661 0-3.008 1.338-3.009 3v0 0zM22 7h1c0.545 0 1 0.449 1 1.003v20.994c0 0.564-0.448 1.003-1 1.003h-15c-0.545 0-1-0.449-1-1.003v-20.994c0-0.564 0.448-1.003 1-1.003h1c0.003 1.105 0.895 2 2.003 2h8.994c1.104 0 2-0.891 2.003-2v0 0zM15.5 5c0.276 0 0.5-0.224 0.5-0.5s-0.224-0.5-0.5-0.5c-0.276 0-0.5 0.224-0.5 0.5s0.224 0.5 0.5 0.5v0zM14 14v1h8v-1h-8zM9 13h3v3h-3v-3zM10 14v1h1v-1h-1zM9 18h3v3h-3v-3zM10 19v1h1v-1h-1zM14 19v1h8v-1h-8zM9 23h3v3h-3v-3zM10 24v1h1v-1h-1zM14 24v1h8v-1h-8z"></path>
        </symbol>
        <symbol id="icon-clipboard-list1" viewBox="0 0 32 32">
            <title>clipboard-list1</title>
            <path d="M13 5v-1.002c0-1.1 0.898-1.998 2.005-1.998h0.99c1.111 0 2.005 0.895 2.005 1.998v1.002h2.004c0.551 0 0.996 0.447 0.996 0.999v1.002c0 0.556-0.446 0.999-0.996 0.999h-9.009c-0.551 0-0.996-0.447-0.996-0.999v-1.002c0-0.556 0.446-0.999 0.996-0.999h2.004zM22 6h1.003c1.107 0 1.997 0.897 1.997 2.004v20.993c0 1.114-0.894 2.004-1.997 2.004h-15.005c-1.107 0-1.997-0.897-1.997-2.004v-20.993c0-1.114 0.894-2.004 1.997-2.004h1.003c0 0.002 0 0.003 0 0.005v0.99c0 1.107 0.894 2.005 2.003 2.005h8.994c1.106 0 2.003-0.894 2.003-2.005v-0.99c0-0.002 0-0.003 0-0.005v0 0zM15.5 5c0.276 0 0.5-0.224 0.5-0.5s-0.224-0.5-0.5-0.5c-0.276 0-0.5 0.224-0.5 0.5s0.224 0.5 0.5 0.5v0zM14 14v1h8v-1h-8zM9 13v3h3v-3h-3zM10 14v1h1v-1h-1zM9 18v3h3v-3h-3zM10 19v1h1v-1h-1zM14 19v1h8v-1h-8zM9 23v3h3v-3h-3zM10 24v1h1v-1h-1zM14 24v1h8v-1h-8z"></path>
        </symbol>
        <symbol id="icon-note-text" viewBox="0 0 32 32">
            <title>note-text</title>
            <path d="M6 11v15.001c0 0.56 0.451 0.999 1.007 0.999h13.993v-4.994c0-1.119 0.895-2.006 1.998-2.006h4.002v-9h-21zM6 10h21v-2.993c0-0.557-0.447-1.007-0.999-1.007h-19.003c-0.56 0-0.999 0.447-0.999 0.999v3.001zM21.5 28h-14.5c-1.105 0-2-0.902-2-2.001v-18.998c0-1.105 0.902-2.001 2.001-2.001h18.998c1.105 0 2.001 0.894 2.001 1.994v14.006l-6 7h-0.5zM22 26.5l4.7-5.5h-3.703c-0.546 0-0.997 0.452-0.997 1.009v4.491zM8 14v1h17v-1h-17zM8 17v1h17v-1h-17zM8 20v1h11v-1h-11zM8 23v1h11v-1h-11z"></path>
        </symbol>
        <symbol id="icon-note-text1" viewBox="0 0 32 32">
            <title>note-text1</title>
            <path d="M5 11h23v9h-4.994c-1.108 0-2.006 0.887-2.006 1.998v6.002h-14.006c-1.101 0-1.994-0.902-1.994-2.001v-14.999zM5 10v-2.999c0-1.105 0.902-2.001 2.001-2.001h18.998c1.105 0 2.001 0.893 2.001 1.992v3.008h-23zM22 28v-5.997c0-0.554 0.451-1.003 0.991-1.003h5.009l-6 7zM8 14v1h17v-1h-17zM8 17v1h17v-1h-17zM8 20v1h11v-1h-11zM8 23v1h11v-1h-11z"></path>
        </symbol>
        <symbol id="icon-note-list" viewBox="0 0 32 32">
            <title>note-list</title>
            <path d="M21.5 28h-14.5c-1.105 0-2-0.902-2-2.001v-18.998c0-1.105 0.902-2.001 2.001-2.001h18.998c1.105 0 2.001 0.894 2.001 1.994v14.006l-6 7h-0.5zM6 11v15.001c0 0.56 0.451 0.999 1.007 0.999h13.993v-4.994c0-1.119 0.895-2.006 1.998-2.006h4.002v-9h-21zM6 10h21v-2.993c0-0.557-0.447-1.007-0.999-1.007h-19.003c-0.56 0-0.999 0.447-0.999 0.999v3.001zM22 26.5l4.7-5.5h-3.703c-0.546 0-0.997 0.452-0.997 1.009v4.491zM13 18v1h7v-1h-7zM8 17h3v3h-3v-3zM9 18v1h1v-1h-1zM13 14v1h12v-1h-12zM8 13h3v3h-3v-3zM9 14v1h1v-1h-1zM13 22v1h6v-1h-6zM8 21h3v3h-3v-3zM9 22v1h1v-1h-1z"></path>
        </symbol>
        <symbol id="icon-note-list1" viewBox="0 0 32 32">
            <title>note-list1</title>
            <path d="M5 11h23v9h-4.994c-1.108 0-2.006 0.887-2.006 1.998v6.002h-14.006c-1.101 0-1.994-0.902-1.994-2.001v-14.999zM5 10v-2.999c0-1.105 0.902-2.001 2.001-2.001h18.998c1.105 0 2.001 0.893 2.001 1.992v3.008h-23zM22 28v-5.997c0-0.554 0.451-1.003 0.991-1.003h5.009l-6 7zM13 18v1h7v-1h-7zM8 17v3h3v-3h-3zM9 18v1h1v-1h-1zM13 14v1h12v-1h-12zM8 13v3h3v-3h-3zM9 14v1h1v-1h-1zM13 22v1h6v-1h-6zM8 21v3h3v-3h-3zM9 22v1h1v-1h-1z"></path>
        </symbol>
        <symbol id="icon-notebook-text" viewBox="0 0 32 32">
            <title>notebook-text</title>
            <path d="M21 4v-1h1v1h1.003c1.107 0 1.997 0.897 1.997 2.004v20.993c0 1.114-0.894 2.004-1.997 2.004h-15.005c-1.107 0-1.997-0.897-1.997-2.004v-20.993c0-1.114 0.894-2.004 1.997-2.004h1.003v-1h1v1h3v-1h1v1h3v-1h1v1h3zM21 5h-3v1h-1v-1h-3v1h-1v-1h-3v1h-1v-1h-1c-0.552 0-1 0.439-1 1.003v20.994c0 0.554 0.455 1.003 1 1.003h15c0.552 0 1-0.439 1-1.003v-20.994c0-0.554-0.455-1.003-1-1.003h-1v1h-1v-1zM9 9v1h13v-1h-13zM9 12v1h13v-1h-13zM9 15v1h13v-1h-13zM9 18v1h13v-1h-13zM9 21v1h13v-1h-13zM9 24v1h13v-1h-13z"></path>
        </symbol>
        <symbol id="icon-notebook-text1" viewBox="0 0 32 32">
            <title>notebook-text1</title>
            <path d="M23.003 4c0 0-0.878 0-1.003 0v2h-1v-2h-3v2h-1v-2h-3v2h-1v-2h-3v2h-1v-2c-0.125 0-1.003 0-1.003 0-1.103 0-1.997 0.891-1.997 2.003v20.994c0 1.106 0.891 2.003 1.997 2.003h15.006c1.103 0 1.997-0.891 1.997-2.003v-20.994c0-1.106-0.891-2.003-1.997-2.003zM22 25h-13v-1h13v1zM22 22h-13v-1h13v1zM22 19h-13v-1h13v1zM22 16h-13v-1h13v1zM22 13h-13v-1h13v1zM22 10h-13v-1h13v1z"></path>
            <path d="M9 2h1v2h-1v-2z"></path>
            <path d="M13 2h1v2h-1v-2z"></path>
            <path d="M17 2h1v2h-1v-2z"></path>
            <path d="M21 2h1v2h-1v-2z"></path>
        </symbol>
        <symbol id="icon-notebook-list" viewBox="0 0 32 32">
            <title>notebook-list</title>
            <path d="M21 4v-1h1v1h1.003c1.107 0 1.997 0.897 1.997 2.004v20.993c0 1.114-0.894 2.004-1.997 2.004h-15.005c-1.107 0-1.997-0.897-1.997-2.004v-20.993c0-1.114 0.894-2.004 1.997-2.004h1.003v-1h1v1h3v-1h1v1h3v-1h1v1h3zM21 5h-3v1h-1v-1h-3v1h-1v-1h-3v1h-1v-1h-1c-0.552 0-1 0.439-1 1.003v20.994c0 0.554 0.455 1.003 1 1.003h15c0.552 0 1-0.439 1-1.003v-20.994c0-0.554-0.455-1.003-1-1.003h-1v1h-1v-1zM14 12v1h8v-1h-8zM9 11h3v3h-3v-3zM10 12v1h1v-1h-1zM9 16h3v3h-3v-3zM10 17v1h1v-1h-1zM14 17v1h8v-1h-8zM9 21h3v3h-3v-3zM10 22v1h1v-1h-1zM14 22v1h8v-1h-8z"></path>
        </symbol>
        <symbol id="icon-notebook-list1" viewBox="0 0 32 32">
            <title>notebook-list1</title>
            <path d="M9 2h1v2h-1v-2z"></path>
            <path d="M13 2h1v2h-1v-2z"></path>
            <path d="M17 2h1v2h-1v-2z"></path>
            <path d="M21 2h1v2h-1v-2z"></path>
            <path d="M10 22h1v1h-1v-1z"></path>
            <path d="M10 17h1v1h-1v-1z"></path>
            <path d="M10 12h1v1h-1v-1z"></path>
            <path d="M23.003 4c0 0-0.878 0-1.003 0v2h-1v-2h-3v2h-1v-2h-3v2h-1v-2h-3v2h-1v-2c-0.125 0-1.003 0-1.003 0-1.103 0-1.997 0.891-1.997 2.003v20.994c0 1.106 0.891 2.003 1.997 2.003h15.006c1.103 0 1.997-0.891 1.997-2.003v-20.994c0-1.106-0.891-2.003-1.997-2.003zM12 24h-3v-3h3v3zM12 19h-3v-3h3v3zM12 14h-3v-3h3v3zM22 23h-8v-1h8v1zM22 18h-8v-1h8v1zM22 13h-8v-1h8v1z"></path>
        </symbol>
        <symbol id="icon-document-text" viewBox="0 0 32 32">
            <title>document-text</title>
            <path d="M19.5 3h0.5l6 7v18.009c0 1.093-0.894 1.991-1.997 1.991h-15.005c-1.107 0-1.997-0.899-1.997-2.007v-22.985c0-1.109 0.897-2.007 2.003-2.007h10.497zM19 4h-10.004c-0.55 0-0.996 0.455-0.996 0.995v23.009c0 0.55 0.455 0.995 1 0.995h15c0.552 0 1-0.445 1-0.993v-17.007h-4.002c-1.103 0-1.998-0.887-1.998-2.006v-4.994zM20 4.5v4.491c0 0.557 0.451 1.009 0.997 1.009h3.703l-4.7-5.5zM10 10v1h7v-1h-7zM10 7v1h7v-1h-7zM10 13v1h13v-1h-13zM10 16v1h13v-1h-13zM10 19v1h13v-1h-13zM10 22v1h13v-1h-13zM10 25v1h13v-1h-13z"></path>
        </symbol>
        <symbol id="icon-document-text1" viewBox="0 0 32 32">
            <title>document-text1</title>
            <path d="M19 3v6.002c0 1.111 0.898 1.998 2.006 1.998h4.994v17.003c0 1.107-0.894 1.997-1.997 1.997h-15.005c-1.107 0-1.997-0.899-1.997-2.007v-22.985c0-1.109 0.899-2.007 2.009-2.007h9.991zM20 3v5.997c0 0.554 0.451 1.003 0.991 1.003h5.009l-6-7zM10 10v1h7v-1h-7zM10 7v1h7v-1h-7zM10 13v1h13v-1h-13zM10 16v1h13v-1h-13zM10 19v1h13v-1h-13zM10 22v1h13v-1h-13zM10 25v1h13v-1h-13z"></path>
        </symbol>
        <symbol id="icon-document-recording" viewBox="0 0 32 32">
            <title>document-recording</title>
            <path d="M19.5 3h0.5l6 7v18.009c0 1.093-0.894 1.991-1.997 1.991h-15.005c-1.107 0-1.997-0.899-1.997-2.007v-22.985c0-1.109 0.897-2.007 2.003-2.007h10.497zM19 4h-10.004c-0.55 0-0.996 0.455-0.996 0.995v23.009c0 0.55 0.455 0.995 1 0.995h15c0.552 0 1-0.445 1-0.993v-17.007h-4.002c-1.103 0-1.998-0.887-1.998-2.006v-4.994zM20 4.5v4.491c0 0.557 0.451 1.009 0.997 1.009h3.703l-4.7-5.5zM13 20.495v-1.495h1v1.493c0 1.385 1.11 2.507 2.5 2.507 1.381 0 2.5-1.125 2.5-2.507v-1.493h1v1.495c0 1.768-1.304 3.227-3 3.47v2.035h2v1h-5v-1h2v-2.036c-1.693-0.243-3-1.704-3-3.47v0zM15 16.502v0c0-0.831 0.672-1.502 1.5-1.502 0.834 0 1.5 0.672 1.5 1.502v3.997c0 0.831-0.672 1.502-1.5 1.502-0.834 0-1.5-0.672-1.5-1.502v-3.997zM16.5 16c-0.276 0-0.5 0.215-0.5 0.498v4.005c0 0.275 0.232 0.498 0.5 0.498 0.276 0 0.5-0.215 0.5-0.498v-4.005c0-0.275-0.232-0.498-0.5-0.498v0z"></path>
        </symbol>
        <symbol id="icon-document-recording1" viewBox="0 0 32 32">
            <title>document-recording1</title>
            <path d="M19 3h-9.991c-1.109 0-2.009 0.898-2.009 2.007v22.985c0 1.109 0.891 2.007 1.997 2.007h15.005c1.103 0 1.997-0.891 1.997-1.997v-17.003h-4.994c-1.108 0-2.006-0.887-2.006-1.998v-6.002zM13 20.495v-1.495h1v1.493c0 1.385 1.11 2.507 2.5 2.507 1.381 0 2.5-1.125 2.5-2.507v-1.493h1v1.495c0 1.768-1.304 3.227-3 3.47v2.035h2v1h-5v-1h2v-2.036c-1.693-0.243-3-1.704-3-3.47v0zM20 3v5.997c0 0.554 0.451 1.003 0.991 1.003h5.009l-6-7zM15 16.502v0c0-0.831 0.672-1.502 1.5-1.502 0.834 0 1.5 0.672 1.5 1.502v3.997c0 0.831-0.672 1.502-1.5 1.502-0.834 0-1.5-0.672-1.5-1.502v-3.997zM16.5 16c-0.276 0-0.5 0.215-0.5 0.498v4.005c0 0.275 0.232 0.498 0.5 0.498 0.276 0 0.5-0.215 0.5-0.498v-4.005c0-0.275-0.232-0.498-0.5-0.498v0z"></path>
        </symbol>
        <symbol id="icon-document-table" viewBox="0 0 32 32">
            <title>document-table</title>
            <path d="M16 21v2h-4v-2h4zM17 21h4v2h-4v-2zM16 26h-4v-2h4v2zM17 26v-2h4v2h-4zM16 18v2h-4v-2h4zM17 18h4v2h-4v-2zM16 15v2h-4v-2h4zM17 15h4v2h-4v-2zM19.5 3h0.5l6 7v18.009c0 1.093-0.894 1.991-1.997 1.991h-15.005c-1.107 0-1.997-0.899-1.997-2.007v-22.985c0-1.109 0.897-2.007 2.003-2.007h10.497zM19 4h-10.004c-0.55 0-0.996 0.455-0.996 0.995v23.009c0 0.55 0.455 0.995 1 0.995h15c0.552 0 1-0.445 1-0.993v-17.007h-4.002c-1.103 0-1.998-0.887-1.998-2.006v-4.994zM20 4.5v4.491c0 0.557 0.451 1.009 0.997 1.009h3.703l-4.7-5.5zM11 13v14h11v-14h-11z"></path>
        </symbol>
        <symbol id="icon-document-table1" viewBox="0 0 32 32">
            <title>document-table1</title>
            <path d="M16 21h-4v2h4v-2zM17 21h4v2h-4v-2zM16 26h-4v-2h4v2zM17 26h4v-2h-4v2zM16 18h-4v2h4v-2zM17 18h4v2h-4v-2zM16 15h-4v2h4v-2zM17 15h4v2h-4v-2zM19 3v6.002c0 1.111 0.898 1.998 2.006 1.998h4.994v17.003c0 1.107-0.894 1.997-1.997 1.997h-15.005c-1.107 0-1.997-0.899-1.997-2.007v-22.985c0-1.109 0.899-2.007 2.009-2.007h9.991zM20 3v5.997c0 0.554 0.451 1.003 0.991 1.003h5.009l-6-7zM11 13v14h11v-14h-11z"></path>
        </symbol>
        <symbol id="icon-document-text4" viewBox="0 0 32 32">
            <title>document-text4</title>
            <path d="M19.5 3h0.5l6 7v18.009c0 1.093-0.894 1.991-1.997 1.991h-15.005c-1.107 0-1.997-0.899-1.997-2.007v-22.985c0-1.109 0.897-2.007 2.003-2.007h10.497zM19 4h-10.004c-0.55 0-0.996 0.455-0.996 0.995v23.009c0 0.55 0.455 0.995 1 0.995h15c0.552 0 1-0.445 1-0.993v-17.007h-4.002c-1.103 0-1.998-0.887-1.998-2.006v-4.994zM20 4.5v4.491c0 0.557 0.451 1.009 0.997 1.009h3.703l-4.7-5.5zM10 6v2h1v-1h1v4h1v-4h1v1h1v-2h-5zM10 16v1h13v-1h-13zM10 13v1h13v-1h-13zM10 19v1h13v-1h-13zM10 22v1h13v-1h-13zM10 25v1h13v-1h-13z"></path>
        </symbol>
        <symbol id="icon-document-text5" viewBox="0 0 32 32">
            <title>document-text5</title>
            <path d="M19 3v6.002c0 1.111 0.898 1.998 2.006 1.998h4.994v17.003c0 1.107-0.894 1.997-1.997 1.997h-15.005c-1.107 0-1.997-0.899-1.997-2.007v-22.985c0-1.109 0.899-2.007 2.009-2.007h9.991zM10 6v2h1v-1h1v4h1v-4h1v1h1v-2h-5zM20 3v5.997c0 0.554 0.451 1.003 0.991 1.003h5.009l-6-7zM10 16v1h13v-1h-13zM10 13v1h13v-1h-13zM10 19v1h13v-1h-13zM10 22v1h13v-1h-13zM10 25v1h13v-1h-13z"></path>
        </symbol>
        <symbol id="icon-document-list" viewBox="0 0 32 32">
            <title>document-list</title>
            <path d="M19.5 3h0.5l6 7v18.009c0 1.093-0.894 1.991-1.997 1.991h-15.005c-1.107 0-1.997-0.899-1.997-2.007v-22.985c0-1.109 0.897-2.007 2.003-2.007h10.497zM19 4h-10.004c-0.55 0-0.996 0.455-0.996 0.995v23.009c0 0.55 0.455 0.995 1 0.995h15c0.552 0 1-0.445 1-0.993v-17.007h-4.002c-1.103 0-1.998-0.887-1.998-2.006v-4.994zM20 4.5v4.491c0 0.557 0.451 1.009 0.997 1.009h3.703l-4.7-5.5zM15 14v1h8v-1h-8zM10 13h3v3h-3v-3zM11 14v1h1v-1h-1zM10 18h3v3h-3v-3zM11 19v1h1v-1h-1zM15 19v1h8v-1h-8zM10 23h3v3h-3v-3zM11 24v1h1v-1h-1zM15 24v1h8v-1h-8z"></path>
        </symbol>
        <symbol id="icon-document-list1" viewBox="0 0 32 32">
            <title>document-list1</title>
            <path d="M19 3v6.002c0 1.111 0.898 1.998 2.006 1.998h4.994v17.003c0 1.107-0.894 1.997-1.997 1.997h-15.005c-1.107 0-1.997-0.899-1.997-2.007v-22.985c0-1.109 0.899-2.007 2.009-2.007h9.991zM20 3v5.997c0 0.554 0.451 1.003 0.991 1.003h5.009l-6-7zM15 14v1h8v-1h-8zM10 13v3h3v-3h-3zM11 14v1h1v-1h-1zM10 18v3h3v-3h-3zM11 19v1h1v-1h-1zM15 19v1h8v-1h-8zM10 23v3h3v-3h-3zM11 24v1h1v-1h-1zM15 24v1h8v-1h-8z"></path>
        </symbol>
    </defs>
</svg>