<svg aria-hidden="true" style="position: absolute; width: 0; height: 0; overflow: hidden;" version="1.1" xmlns="http://www.w3.org/2000/svg" xmlns:xlink="http://www.w3.org/1999/xlink">
<defs>
<symbol id="icon-view-hide" viewBox="0 0 20 20">
<title>view-hide</title>
<path d="M12.81 4.36l-1.77 1.78c-0.311-0.087-0.668-0.137-1.037-0.137-2.209 0-4 1.791-4 4 0 0.369 0.050 0.726 0.143 1.065l-0.007-0.028-2.76 2.75c-1.32-1-2.42-2.3-3.18-3.79 1.86-3.591 5.548-6.003 9.799-6.003 0.996 0 1.96 0.132 2.878 0.38l-0.077-0.018zM16.61 6.21c1.33 1 2.43 2.3 3.2 3.79-1.859 3.594-5.549 6.007-9.802 6.007-1.002 0-1.973-0.134-2.895-0.385l0.077 0.018 1.77-1.78c0.311 0.087 0.668 0.137 1.037 0.137 2.209 0 4-1.791 4-4 0-0.369-0.050-0.726-0.143-1.065l0.007 0.028 2.76-2.75zM16.36 2.22l1.42 1.42-14.14 14.14-1.42-1.42 14.14-14.14z"></path>
</symbol>
<symbol id="icon-view-show" viewBox="0 0 20 20">
<title>view-show</title>
<path d="M0.2 10c1.86-3.592 5.548-6.004 9.8-6.004s7.94 2.412 9.771 5.943l0.029 0.061c-1.86 3.592-5.548 6.004-9.8 6.004s-7.94-2.412-9.771-5.943l-0.029-0.061zM10 14c2.209 0 4-1.791 4-4s-1.791-4-4-4v0c-2.209 0-4 1.791-4 4s1.791 4 4 4v0zM10 12c-1.105 0-2-0.895-2-2s0.895-2 2-2v0c1.105 0 2 0.895 2 2s-0.895 2-2 2v0z"></path>
</symbol>
</defs>
</svg>

