<svg aria-hidden="true" style="position: absolute; width: 0; height: 0; overflow: hidden;" version="1.1" 
    xmlns="http://www.w3.org/2000/svg" 
    xmlns:xlink="http://www.w3.org/1999/xlink">
    <defs>
        <symbol id="icon-comments2" viewBox="0 0 28 28">
            <title>comments2</title>
            <path d="M22 12c0 4.422-4.922 8-11 8-0.953 0-1.875-0.094-2.75-0.25-1.297 0.922-2.766 1.594-4.344 2-0.422 0.109-0.875 0.187-1.344 0.25h-0.047c-0.234 0-0.453-0.187-0.5-0.453v0c-0.063-0.297 0.141-0.484 0.313-0.688 0.609-0.688 1.297-1.297 1.828-2.594-2.531-1.469-4.156-3.734-4.156-6.266 0-4.422 4.922-8 11-8s11 3.578 11 8zM28 16c0 2.547-1.625 4.797-4.156 6.266 0.531 1.297 1.219 1.906 1.828 2.594 0.172 0.203 0.375 0.391 0.313 0.688v0c-0.063 0.281-0.297 0.484-0.547 0.453-0.469-0.063-0.922-0.141-1.344-0.25-1.578-0.406-3.047-1.078-4.344-2-0.875 0.156-1.797 0.25-2.75 0.25-2.828 0-5.422-0.781-7.375-2.063 0.453 0.031 0.922 0.063 1.375 0.063 3.359 0 6.531-0.969 8.953-2.719 2.609-1.906 4.047-4.484 4.047-7.281 0-0.812-0.125-1.609-0.359-2.375 2.641 1.453 4.359 3.766 4.359 6.375z"></path>
        </symbol>
        <symbol id="icon-caret-down" viewBox="0 0 16 28">
            <title>caret-down</title>
            <path d="M16 11c0 0.266-0.109 0.516-0.297 0.703l-7 7c-0.187 0.187-0.438 0.297-0.703 0.297s-0.516-0.109-0.703-0.297l-7-7c-0.187-0.187-0.297-0.438-0.297-0.703 0-0.547 0.453-1 1-1h14c0.547 0 1 0.453 1 1z"></path>
        </symbol>
        <symbol id="icon-caret-up" viewBox="0 0 16 28">
            <title>caret-up</title>
            <path d="M16 19c0 0.547-0.453 1-1 1h-14c-0.547 0-1-0.453-1-1 0-0.266 0.109-0.516 0.297-0.703l7-7c0.187-0.187 0.438-0.297 0.703-0.297s0.516 0.109 0.703 0.297l7 7c0.187 0.187 0.297 0.438 0.297 0.703z"></path>
        </symbol>
        <symbol id="icon-comments-o" viewBox="0 0 28 28">
            <title>comments-o</title>
            <path d="M11 6c-4.875 0-9 2.75-9 6 0 1.719 1.156 3.375 3.156 4.531l1.516 0.875-0.547 1.313c0.328-0.187 0.656-0.391 0.969-0.609l0.688-0.484 0.828 0.156c0.781 0.141 1.578 0.219 2.391 0.219 4.875 0 9-2.75 9-6s-4.125-6-9-6zM11 4c6.078 0 11 3.578 11 8s-4.922 8-11 8c-0.953 0-1.875-0.094-2.75-0.25-1.297 0.922-2.766 1.594-4.344 2-0.422 0.109-0.875 0.187-1.344 0.25h-0.047c-0.234 0-0.453-0.187-0.5-0.453v0c-0.063-0.297 0.141-0.484 0.313-0.688 0.609-0.688 1.297-1.297 1.828-2.594-2.531-1.469-4.156-3.734-4.156-6.266 0-4.422 4.922-8 11-8zM23.844 22.266c0.531 1.297 1.219 1.906 1.828 2.594 0.172 0.203 0.375 0.391 0.313 0.688v0c-0.063 0.281-0.297 0.484-0.547 0.453-0.469-0.063-0.922-0.141-1.344-0.25-1.578-0.406-3.047-1.078-4.344-2-0.875 0.156-1.797 0.25-2.75 0.25-2.828 0-5.422-0.781-7.375-2.063 0.453 0.031 0.922 0.063 1.375 0.063 3.359 0 6.531-0.969 8.953-2.719 2.609-1.906 4.047-4.484 4.047-7.281 0-0.812-0.125-1.609-0.359-2.375 2.641 1.453 4.359 3.766 4.359 6.375 0 2.547-1.625 4.797-4.156 6.266z"></path>
        </symbol>
        <symbol id="icon-stethoscope" viewBox="0 0 22 28">
            <title>stethoscope</title>
            <path d="M20 11c0-0.547-0.453-1-1-1s-1 0.453-1 1 0.453 1 1 1 1-0.453 1-1zM22 11c0 1.313-0.828 2.406-2 2.828v6.172c0 3.313-3.141 6-7 6s-7-2.688-7-6v-2.063c-3.391-0.422-6-2.922-6-5.938v-8c0-0.547 0.453-1 1-1 0.094 0 0.172 0.016 0.25 0.031 0.344-0.609 1-1.031 1.75-1.031 1.109 0 2 0.891 2 2s-0.891 2-2 2c-0.359 0-0.703-0.109-1-0.281v6.281c0 2.203 2.25 4 5 4s5-1.797 5-4v-6.281c-0.297 0.172-0.641 0.281-1 0.281-1.109 0-2-0.891-2-2s0.891-2 2-2c0.75 0 1.406 0.422 1.75 1.031 0.078-0.016 0.156-0.031 0.25-0.031 0.547 0 1 0.453 1 1v8c0 3.016-2.609 5.516-6 5.938v2.063c0 2.203 2.25 4 5 4s5-1.797 5-4v-6.172c-1.172-0.422-2-1.516-2-2.828 0-1.656 1.344-3 3-3s3 1.344 3 3z"></path>
        </symbol>
        <symbol id="icon-ambulance" viewBox="0 0 31 28">
            <title>ambulance</title>
            <path d="M10 22c0-1.109-0.891-2-2-2s-2 0.891-2 2 0.891 2 2 2 2-0.891 2-2zM4 14h6v-4h-2.469c-0.094 0.016-0.266 0.078-0.344 0.141l-3.047 3.047c-0.047 0.078-0.125 0.25-0.141 0.344v0.469zM24 22c0-1.109-0.891-2-2-2s-2 0.891-2 2 0.891 2 2 2 2-0.891 2-2zM26 11.5v-3c0-0.281-0.219-0.5-0.5-0.5h-3.5v-3.5c0-0.281-0.219-0.5-0.5-0.5h-3c-0.281 0-0.5 0.219-0.5 0.5v3.5h-3.5c-0.281 0-0.5 0.219-0.5 0.5v3c0 0.281 0.219 0.5 0.5 0.5h3.5v3.5c0 0.281 0.219 0.5 0.5 0.5h3c0.281 0 0.5-0.219 0.5-0.5v-3.5h3.5c0.281 0 0.5-0.219 0.5-0.5zM30 3v18c0 0.547-0.453 1-1 1h-3c0 2.203-1.781 4-4 4-2.203 0-4-1.797-4-4h-6c0 2.203-1.781 4-4 4s-4-1.797-4-4h-2c-0.547 0-1-0.453-1-1s0.453-1 1-1v-6.5c0-0.547 0.313-1.313 0.703-1.703l3.094-3.094c0.391-0.391 1.156-0.703 1.703-0.703h2.5v-5c0-0.547 0.453-1 1-1h18c0.547 0 1 0.453 1 1z"></path>
        </symbol>
        <symbol id="icon-medkit" viewBox="0 0 28 28">
            <title>medkit</title>
            <path d="M20 17.5v-3c0-0.281-0.219-0.5-0.5-0.5h-3.5v-3.5c0-0.281-0.219-0.5-0.5-0.5h-3c-0.281 0-0.5 0.219-0.5 0.5v3.5h-3.5c-0.281 0-0.5 0.219-0.5 0.5v3c0 0.281 0.219 0.5 0.5 0.5h3.5v3.5c0 0.281 0.219 0.5 0.5 0.5h3c0.281 0 0.5-0.219 0.5-0.5v-3.5h3.5c0.281 0 0.5-0.219 0.5-0.5zM10 6h8v-2h-8v2zM4 6v20h-0.5c-1.922 0-3.5-1.578-3.5-3.5v-13c0-1.922 1.578-3.5 3.5-3.5h0.5zM22.5 6v20h-17v-20h2.5v-2.5c0-0.828 0.672-1.5 1.5-1.5h9c0.828 0 1.5 0.672 1.5 1.5v2.5h2.5zM28 9.5v13c0 1.922-1.578 3.5-3.5 3.5h-0.5v-20h0.5c1.922 0 3.5 1.578 3.5 3.5z"></path>
        </symbol>
        <symbol id="icon-heartbeat" viewBox="0 0 28 28">
            <title>heartbeat</title>
            <path d="M20 16h4.766c-0.187 0.203-0.313 0.313-0.344 0.344l-9.734 9.375c-0.187 0.187-0.438 0.281-0.688 0.281s-0.5-0.094-0.688-0.281l-9.75-9.406c-0.031-0.016-0.156-0.125-0.328-0.313h5.766c0.453 0 0.859-0.313 0.969-0.75l1.094-4.391 2.969 10.422c0.125 0.422 0.516 0.719 0.969 0.719v0c0.438 0 0.828-0.297 0.953-0.719l2.281-7.578 0.875 1.75c0.172 0.328 0.516 0.547 0.891 0.547zM28 9.312c0 1.797-0.781 3.437-1.609 4.688h-5.766l-1.734-3.453c-0.172-0.359-0.578-0.578-0.969-0.547-0.422 0.047-0.766 0.313-0.875 0.719l-2.016 6.719-3.063-10.719c-0.125-0.422-0.516-0.719-0.984-0.719-0.453 0-0.844 0.313-0.953 0.75l-1.813 7.25h-6.609c-0.828-1.25-1.609-2.891-1.609-4.688 0-4.578 2.797-7.313 7.469-7.313 2.734 0 5.297 2.156 6.531 3.375 1.234-1.219 3.797-3.375 6.531-3.375 4.672 0 7.469 2.734 7.469 7.313z"></path>
        </symbol>
        <symbol id="icon-drivers-license" viewBox="0 0 32 28">
            <title>drivers-license</title>
            <path d="M14 18.937c0-2.063-0.5-4.438-2.562-4.438-0.625 0.625-1.484 1-2.438 1s-1.813-0.375-2.438-1c-2.063 0-2.562 2.375-2.562 4.438 0 1.141 0.75 2.063 1.672 2.063h6.656c0.922 0 1.672-0.922 1.672-2.063zM12 12c0-1.656-1.344-3-3-3s-3 1.344-3 3 1.344 3 3 3 3-1.344 3-3zM28 19.5v-1c0-0.281-0.219-0.5-0.5-0.5h-11c-0.281 0-0.5 0.219-0.5 0.5v1c0 0.281 0.219 0.5 0.5 0.5h11c0.281 0 0.5-0.219 0.5-0.5zM22 15.5v-1c0-0.281-0.219-0.5-0.5-0.5h-5c-0.281 0-0.5 0.219-0.5 0.5v1c0 0.281 0.219 0.5 0.5 0.5h5c0.281 0 0.5-0.219 0.5-0.5zM28 15.5v-1c0-0.281-0.219-0.5-0.5-0.5h-3c-0.281 0-0.5 0.219-0.5 0.5v1c0 0.281 0.219 0.5 0.5 0.5h3c0.281 0 0.5-0.219 0.5-0.5zM28 11.5v-1c0-0.281-0.219-0.5-0.5-0.5h-11c-0.281 0-0.5 0.219-0.5 0.5v1c0 0.281 0.219 0.5 0.5 0.5h11c0.281 0 0.5-0.219 0.5-0.5zM2 6h28v-1.5c0-0.281-0.219-0.5-0.5-0.5h-27c-0.281 0-0.5 0.219-0.5 0.5v1.5zM32 4.5v19c0 1.375-1.125 2.5-2.5 2.5h-27c-1.375 0-2.5-1.125-2.5-2.5v-19c0-1.375 1.125-2.5 2.5-2.5h27c1.375 0 2.5 1.125 2.5 2.5z"></path>
        </symbol>
        <symbol id="icon-drivers-license-o" viewBox="0 0 32 28">
            <title>drivers-license-o</title>
            <path d="M14 18.937c0 1.141-0.75 2.063-1.672 2.063h-6.656c-0.922 0-1.672-0.922-1.672-2.063 0-2.063 0.5-4.438 2.562-4.438 0.625 0.625 1.484 1 2.438 1s1.813-0.375 2.438-1c2.063 0 2.562 2.375 2.562 4.438zM12 12c0 1.656-1.344 3-3 3s-3-1.344-3-3 1.344-3 3-3 3 1.344 3 3zM28 18.5v1c0 0.281-0.219 0.5-0.5 0.5h-11c-0.281 0-0.5-0.219-0.5-0.5v-1c0-0.281 0.219-0.5 0.5-0.5h11c0.281 0 0.5 0.219 0.5 0.5zM22 14.5v1c0 0.281-0.219 0.5-0.5 0.5h-5c-0.281 0-0.5-0.219-0.5-0.5v-1c0-0.281 0.219-0.5 0.5-0.5h5c0.281 0 0.5 0.219 0.5 0.5zM28 14.5v1c0 0.281-0.219 0.5-0.5 0.5h-3c-0.281 0-0.5-0.219-0.5-0.5v-1c0-0.281 0.219-0.5 0.5-0.5h3c0.281 0 0.5 0.219 0.5 0.5zM28 10.5v1c0 0.281-0.219 0.5-0.5 0.5h-11c-0.281 0-0.5-0.219-0.5-0.5v-1c0-0.281 0.219-0.5 0.5-0.5h11c0.281 0 0.5 0.219 0.5 0.5zM30 23.5v-17.5h-28v17.5c0 0.266 0.234 0.5 0.5 0.5h27c0.266 0 0.5-0.234 0.5-0.5zM32 4.5v19c0 1.375-1.125 2.5-2.5 2.5h-27c-1.375 0-2.5-1.125-2.5-2.5v-19c0-1.375 1.125-2.5 2.5-2.5h27c1.375 0 2.5 1.125 2.5 2.5z"></path>
        </symbol>
        <symbol id="icon-thermometer-3" viewBox="0 0 16 28">
            <title>thermometer-3</title>
            <path d="M10 21c0 1.656-1.344 3-3 3s-3-1.344-3-3c0-1.25 0.781-2.391 2-2.828v-10.172h2v10.172c1.219 0.438 2 1.578 2 2.828zM12 21c0-1.641-0.781-3.078-2-4v-12c0-1.656-1.344-3-3-3s-3 1.344-3 3v12c-1.219 0.922-2 2.359-2 4 0 2.766 2.234 5 5 5s5-2.234 5-5zM14 21c0 3.859-3.141 7-7 7s-7-3.141-7-7c0-1.906 0.766-3.625 2-4.891v-11.109c0-2.766 2.234-5 5-5s5 2.234 5 5v11.109c1.234 1.266 2 2.984 2 4.891zM16 12v2h-3v-2h3zM16 8v2h-3v-2h3zM16 4v2h-3v-2h3z"></path>
        </symbol>
        <symbol id="icon-shower" viewBox="0 0 30 28">
            <title>shower</title>
            <path d="M22.391 3.891c0.203 0.203 0.203 0.516 0 0.719l-9.781 9.781c-0.203 0.203-0.516 0.203-0.719 0l-1.281-1.281c-0.203-0.203-0.203-0.516 0-0.719l0.688-0.688c-1.516-1.906-1.703-4.516-0.547-6.594-0.719-0.688-1.687-1.109-2.75-1.109-2.203 0-4 1.797-4 4v20h-4v-20c0-4.406 3.594-8 8-8 2.25 0 4.281 0.938 5.734 2.438 1.969-0.797 4.25-0.5 5.969 0.859l0.688-0.688c0.203-0.203 0.516-0.203 0.719 0zM21 8c0.547 0 1 0.453 1 1s-0.453 1-1 1-1-0.453-1-1 0.453-1 1-1zM25 10c-0.547 0-1-0.453-1-1s0.453-1 1-1 1 0.453 1 1-0.453 1-1 1zM29 8c0.547 0 1 0.453 1 1s-0.453 1-1 1-1-0.453-1-1 0.453-1 1-1zM19 10c0.547 0 1 0.453 1 1s-0.453 1-1 1-1-0.453-1-1 0.453-1 1-1zM22 11c0-0.547 0.453-1 1-1s1 0.453 1 1-0.453 1-1 1-1-0.453-1-1zM27 10c0.547 0 1 0.453 1 1s-0.453 1-1 1-1-0.453-1-1 0.453-1 1-1zM17 12c0.547 0 1 0.453 1 1s-0.453 1-1 1-1-0.453-1-1 0.453-1 1-1zM21 14c-0.547 0-1-0.453-1-1s0.453-1 1-1 1 0.453 1 1-0.453 1-1 1zM25 12c0.547 0 1 0.453 1 1s-0.453 1-1 1-1-0.453-1-1 0.453-1 1-1zM19 16c-0.547 0-1-0.453-1-1s0.453-1 1-1 1 0.453 1 1-0.453 1-1 1zM23 14c0.547 0 1 0.453 1 1s-0.453 1-1 1-1-0.453-1-1 0.453-1 1-1zM17 16c0.547 0 1 0.453 1 1s-0.453 1-1 1-1-0.453-1-1 0.453-1 1-1zM21 16c0.547 0 1 0.453 1 1s-0.453 1-1 1-1-0.453-1-1 0.453-1 1-1zM19 18c0.547 0 1 0.453 1 1s-0.453 1-1 1-1-0.453-1-1 0.453-1 1-1zM17 20c0.547 0 1 0.453 1 1s-0.453 1-1 1-1-0.453-1-1 0.453-1 1-1z"></path>
        </symbol>
        <symbol id="icon-bath" viewBox="0 0 28 28">
            <title>bath</title>
            <path d="M26 17v3c0 1.781-0.781 3.359-2 4.469v3.031c0 0.281-0.219 0.5-0.5 0.5h-1c-0.281 0-0.5-0.219-0.5-0.5v-1.844c-0.625 0.219-1.297 0.344-2 0.344h-12c-0.703 0-1.375-0.125-2-0.344v1.719c0 0.344-0.219 0.625-0.5 0.625h-1c-0.281 0-0.5-0.281-0.5-0.625v-2.906c-1.219-1.109-2-2.688-2-4.469v-3h24zM11 10.5c0 0.281-0.219 0.5-0.5 0.5s-0.5-0.219-0.5-0.5 0.219-0.5 0.5-0.5 0.5 0.219 0.5 0.5zM12 9.5c0 0.281-0.219 0.5-0.5 0.5s-0.5-0.219-0.5-0.5 0.219-0.5 0.5-0.5 0.5 0.219 0.5 0.5zM11 8.5c0 0.281-0.219 0.5-0.5 0.5s-0.5-0.219-0.5-0.5 0.219-0.5 0.5-0.5 0.5 0.219 0.5 0.5zM13 8.5c0 0.281-0.219 0.5-0.5 0.5s-0.5-0.219-0.5-0.5 0.219-0.5 0.5-0.5 0.5 0.219 0.5 0.5zM12 7.5c0 0.281-0.219 0.5-0.5 0.5s-0.5-0.219-0.5-0.5 0.219-0.5 0.5-0.5 0.5 0.219 0.5 0.5zM11 6.5c0 0.281-0.219 0.5-0.5 0.5s-0.5-0.219-0.5-0.5 0.219-0.5 0.5-0.5 0.5 0.219 0.5 0.5zM28 14.5v1c0 0.281-0.219 0.5-0.5 0.5h-27c-0.281 0-0.5-0.219-0.5-0.5v-1c0-0.281 0.219-0.5 0.5-0.5h1.5v-10c0-2.203 1.797-4 4-4 1.125 0 2.141 0.469 2.875 1.219 0.969-0.391 2.125-0.25 2.984 0.422l0.344-0.344c0.094-0.094 0.25-0.094 0.344 0l0.656 0.656c0.094 0.094 0.094 0.25 0 0.344l-4.906 4.906c-0.094 0.094-0.25 0.094-0.344 0l-0.656-0.656c-0.094-0.094-0.094-0.25 0-0.344l0.344-0.344c-0.75-0.953-0.844-2.266-0.266-3.313-0.359-0.344-0.844-0.547-1.375-0.547-1.109 0-2 0.891-2 2v10h23.5c0.281 0 0.5 0.219 0.5 0.5zM14 7.5c0 0.281-0.219 0.5-0.5 0.5s-0.5-0.219-0.5-0.5 0.219-0.5 0.5-0.5 0.5 0.219 0.5 0.5zM13 6.5c0 0.281-0.219 0.5-0.5 0.5s-0.5-0.219-0.5-0.5 0.219-0.5 0.5-0.5 0.5 0.219 0.5 0.5zM12 5.5c0 0.281-0.219 0.5-0.5 0.5s-0.5-0.219-0.5-0.5 0.219-0.5 0.5-0.5 0.5 0.219 0.5 0.5zM15 6.5c0 0.281-0.219 0.5-0.5 0.5s-0.5-0.219-0.5-0.5 0.219-0.5 0.5-0.5 0.5 0.219 0.5 0.5zM14 5.5c0 0.281-0.219 0.5-0.5 0.5s-0.5-0.219-0.5-0.5 0.219-0.5 0.5-0.5 0.5 0.219 0.5 0.5zM13 4.5c0 0.281-0.219 0.5-0.5 0.5s-0.5-0.219-0.5-0.5 0.219-0.5 0.5-0.5 0.5 0.219 0.5 0.5zM16 5.5c0 0.281-0.219 0.5-0.5 0.5s-0.5-0.219-0.5-0.5 0.219-0.5 0.5-0.5 0.5 0.219 0.5 0.5zM15 4.5c0 0.281-0.219 0.5-0.5 0.5s-0.5-0.219-0.5-0.5 0.219-0.5 0.5-0.5 0.5 0.219 0.5 0.5zM17 4.5c0 0.281-0.219 0.5-0.5 0.5s-0.5-0.219-0.5-0.5 0.219-0.5 0.5-0.5 0.5 0.219 0.5 0.5z"></path>
        </symbol>
        <symbol id="icon-list_alt" viewBox="0 0 24 24">
            <title>list_alt</title>
            <path d="M6.984 15h2.016v2.016h-2.016v-2.016zM6.984 11.016h2.016v1.969h-2.016v-1.969zM6.984 6.984h2.016v2.016h-2.016v-2.016zM11.016 15h6v2.016h-6v-2.016zM11.016 11.016h6v1.969h-6v-1.969zM11.016 6.984h6v2.016h-6v-2.016zM20.109 3q0.328 0 0.609 0.258t0.281 0.633v16.219q0 0.328-0.281 0.609t-0.609 0.281h-16.219q-0.375 0-0.633-0.281t-0.258-0.609v-16.219q0-0.891 0.891-0.891h16.219zM18.984 5.016h-13.969v13.969h13.969v-13.969z"></path>
        </symbol>
        <symbol id="icon-createmode_editedit" viewBox="0 0 24 24">
            <title>createmode_editedit</title>
            <path d="M20.719 7.031l-1.828 1.828-3.75-3.75 1.828-1.828q0.281-0.281 0.703-0.281t0.703 0.281l2.344 2.344q0.281 0.281 0.281 0.703t-0.281 0.703zM3 17.25l11.063-11.063 3.75 3.75-11.063 11.063h-3.75v-3.75z"></path>
        </symbol>
        <symbol id="icon-access_alarmalarm" viewBox="0 0 24 24">
            <title>access_alarmalarm</title>
            <path d="M12 20.016q2.906 0 4.945-2.063t2.039-4.969-2.039-4.945-4.945-2.039-4.945 2.039-2.039 4.945 2.039 4.969 4.945 2.063zM12 3.984q3.75 0 6.375 2.648t2.625 6.352-2.625 6.352-6.375 2.648-6.375-2.648-2.625-6.352 2.625-6.352 6.375-2.648zM12.516 8.016v5.25l3.984 2.344-0.75 1.219-4.734-2.813v-6h1.5zM7.875 3.375l-4.594 3.844-1.266-1.5 4.594-3.844zM21.984 5.719l-1.266 1.547-4.594-3.891 1.266-1.5z"></path>
        </symbol>
        <symbol id="icon-access_alarms" viewBox="0 0 24 24">
            <title>access_alarms</title>
            <path d="M12 20.016q2.906 0 4.945-2.063t2.039-4.969-2.039-4.945-4.945-2.039-4.945 2.039-2.039 4.945 2.039 4.969 4.945 2.063zM12 3.984q3.75 0 6.375 2.625t2.625 6.375-2.625 6.375-6.375 2.625-6.375-2.625-2.625-6.375 2.625-6.375 6.375-2.625zM12.516 8.016v5.297l3.984 2.391-0.797 1.219-4.688-2.906v-6h1.5zM7.922 3.422l-4.641 3.797-1.266-1.5 4.594-3.797zM21.984 5.719l-1.266 1.5-4.641-3.938 1.313-1.5z"></path>
        </symbol>
        <symbol id="icon-access_timequery_builderschedule" viewBox="0 0 24 24">
            <title>access_timequery_builderschedule</title>
            <path d="M12.516 6.984v5.25l4.5 2.672-0.75 1.266-5.25-3.188v-6h1.5zM12 20.016q3.281 0 5.648-2.367t2.367-5.648-2.367-5.648-5.648-2.367-5.648 2.367-2.367 5.648 2.367 5.648 5.648 2.367zM12 2.016q4.125 0 7.055 2.93t2.93 7.055-2.93 7.055-7.055 2.93-7.055-2.93-2.93-7.055 2.93-7.055 7.055-2.93z"></path>
        </symbol>
        <symbol id="icon-add_alarmalarm_add" viewBox="0 0 24 24">
            <title>add_alarmalarm_add</title>
            <path d="M12.984 9v3h3v2.016h-3v3h-1.969v-3h-3v-2.016h3v-3h1.969zM12 20.016q2.906 0 4.945-2.063t2.039-4.969-2.039-4.945-4.945-2.039-4.945 2.039-2.039 4.945 2.039 4.969 4.945 2.063zM12 3.984q3.75 0 6.375 2.648t2.625 6.352-2.625 6.352-6.375 2.648-6.375-2.648-2.625-6.352 2.625-6.352 6.375-2.648zM21.984 5.719l-1.266 1.547-4.594-3.891 1.266-1.5zM7.875 3.375l-4.594 3.844-1.266-1.5 4.594-3.844z"></path>
        </symbol>
        <symbol id="icon-insert_invitationevent" viewBox="0 0 24 24">
            <title>insert_invitationevent</title>
            <path d="M18.984 18.984v-10.969h-13.969v10.969h13.969zM15.984 0.984h2.016v2.016h0.984q0.797 0 1.406 0.609t0.609 1.406v13.969q0 0.797-0.609 1.406t-1.406 0.609h-13.969q-0.844 0-1.43-0.586t-0.586-1.43v-13.969q0-0.797 0.586-1.406t1.43-0.609h0.984v-2.016h2.016v2.016h7.969v-2.016zM17.016 12v5.016h-5.016v-5.016h5.016z"></path>
        </symbol>
        <symbol id="icon-camera_altphoto_cameralocal_see" viewBox="0 0 24 24">
            <title>camera_altphoto_cameralocal_see</title>
            <path d="M12 17.016q2.063 0 3.539-1.477t1.477-3.539-1.477-3.539-3.539-1.477-3.539 1.477-1.477 3.539 1.477 3.539 3.539 1.477zM9 2.016h6l1.828 1.969h3.188q0.797 0 1.383 0.609t0.586 1.406v12q0 0.797-0.586 1.406t-1.383 0.609h-16.031q-0.797 0-1.383-0.609t-0.586-1.406v-12q0-0.797 0.586-1.406t1.383-0.609h3.188zM8.813 12q0-1.313 0.938-2.25t2.25-0.938 2.25 0.938 0.938 2.25-0.938 2.25-2.25 0.938-2.25-0.938-0.938-2.25z"></path>
        </symbol>
        <symbol id="icon-dehaze" viewBox="0 0 24 24">
            <title>dehaze</title>
            <path d="M2.016 5.484h19.969v2.016h-19.969v-2.016zM2.016 10.5h19.969v2.016h-19.969v-2.016zM2.016 15.516h19.969v1.969h-19.969v-1.969z"></path>
        </symbol>
        <symbol id="icon-timer" viewBox="0 0 24 24">
            <title>timer</title>
            <path d="M12 20.016q2.906 0 4.945-2.063t2.039-4.969-2.039-4.945-4.945-2.039-4.945 2.039-2.039 4.945 2.039 4.969 4.945 2.063zM19.031 7.406q0.797 1.031 1.383 2.648t0.586 2.93q0 3.703-2.625 6.352t-6.375 2.648-6.375-2.648-2.625-6.352 2.625-6.352 6.375-2.648q1.266 0 2.93 0.609t2.695 1.406l1.406-1.453q0.75 0.609 1.406 1.406zM11.016 14.016v-6h1.969v6h-1.969zM15 0.984v2.016h-6v-2.016h6z"></path>
        </symbol>
        <symbol id="icon-timer_off" viewBox="0 0 24 24">
            <title>timer_off</title>
            <path d="M12 20.016q1.828 0 3.516-0.984l-9.563-9.563q-0.938 1.594-0.938 3.516 0 2.906 2.039 4.969t4.945 2.063zM3 3.984l17.766 17.766-1.266 1.266-2.531-2.531q-2.344 1.5-4.969 1.5-3.75 0-6.375-2.648t-2.625-6.352q0-1.125 0.445-2.602t1.055-2.367l-2.766-2.766zM11.016 9.422v-1.406h1.969v3.422zM15 0.984v2.016h-6v-2.016h6zM19.031 4.547l1.406 1.406-1.406 1.453q1.969 2.484 1.969 5.578v0.047q0 1.125-0.445 2.578t-1.055 2.344l-1.453-1.453q0.938-1.594 0.938-3.516 0-2.906-2.039-4.945t-4.945-2.039q-1.875 0-3.469 0.938l-1.5-1.453q2.391-1.5 4.969-1.5 1.313 0 2.953 0.586t2.672 1.383z"></path>
        </symbol>
        <symbol id="icon-tune" viewBox="0 0 24 24">
            <title>tune</title>
            <path d="M15 9v-6h2.016v2.016h3.984v1.969h-3.984v2.016h-2.016zM21 12.984h-9.984v-1.969h9.984v1.969zM6.984 9h2.016v6h-2.016v-2.016h-3.984v-1.969h3.984v-2.016zM12.984 21h-1.969v-6h1.969v2.016h8.016v1.969h-8.016v2.016zM3 5.016h9.984v1.969h-9.984v-1.969zM3 17.016h6v1.969h-6v-1.969z"></path>
        </symbol>
        <symbol id="icon-directions_walk" viewBox="0 0 24 24">
            <title>directions_walk</title>
            <path d="M9.797 8.906l-2.813 14.109h2.109l1.828-8.016 2.063 2.016v6h2.016v-7.5l-2.109-2.016 0.609-3q2.156 2.484 5.484 2.484v-1.969q-2.906 0-4.266-2.438l-1.031-1.594q-0.703-0.984-1.688-0.984-0.141 0-0.398 0.047t-0.398 0.047l-5.203 2.203v4.688h2.016v-3.375l1.781-0.703zM13.5 5.484q-0.797 0-1.406-0.586t-0.609-1.383 0.609-1.406 1.406-0.609 1.406 0.609 0.609 1.406-0.609 1.383-1.406 0.586z"></path>
        </symbol>
        <symbol id="icon-hotellocal_hotel" viewBox="0 0 24 24">
            <title>hotellocal_hotel</title>
            <path d="M18.984 6.984q1.641 0 2.836 1.195t1.195 2.836v9h-2.016v-3h-18v3h-2.016v-15h2.016v9h8.016v-7.031h7.969zM6.984 12.984q-1.219 0-2.109-0.891t-0.891-2.109 0.891-2.109 2.109-0.891 2.109 0.891 0.891 2.109-0.891 2.109-2.109 0.891z"></path>
        </symbol>
        <symbol id="icon-local_cafefree_breakfast" viewBox="0 0 24 24">
            <title>local_cafefree_breakfast</title>
            <path d="M3.984 18.984h16.031v2.016h-16.031v-2.016zM20.016 8.016v-3h-2.016v3h2.016zM20.016 3q0.844 0 1.406 0.586t0.563 1.43v3q0 0.844-0.563 1.406t-1.406 0.563h-2.016v3q0 1.641-1.172 2.836t-2.813 1.195h-6q-1.641 0-2.836-1.195t-1.195-2.836v-9.984h16.031z"></path>
        </symbol>
        <symbol id="icon-local_convenience_store" viewBox="0 0 24 24">
            <title>local_convenience_store</title>
            <path d="M15.984 12v-5.016h-0.984v2.016h-0.984v-2.016h-1.031v3h2.016v2.016h0.984zM11.016 9.984v-3h-3v1.031h1.969v0.984h-1.969v3h3v-0.984h-2.016v-1.031h2.016zM18.984 6.984h3v13.031h-7.969v-4.031h-4.031v4.031h-7.969v-13.031h3v-3h13.969v3z"></path>
        </symbol>
        <symbol id="icon-local_hospital" viewBox="0 0 24 24">
            <title>local_hospital</title>
            <path d="M18 14.016v-4.031h-3.984v-3.984h-4.031v3.984h-3.984v4.031h3.984v3.984h4.031v-3.984h3.984zM18.984 3q0.797 0 1.406 0.609t0.609 1.406v13.969q0 0.797-0.609 1.406t-1.406 0.609h-13.969q-0.797 0-1.406-0.609t-0.609-1.406v-13.969q0-0.797 0.609-1.406t1.406-0.609h13.969z"></path>
        </symbol>
        <symbol id="icon-local_laundry_service" viewBox="0 0 24 24">
            <title>local_laundry_service</title>
            <path d="M12 20.016q2.484 0 4.242-1.758t1.758-4.242-1.758-4.242-4.242-1.758-4.242 1.758-1.758 4.242 1.758 4.242 4.242 1.758zM6.984 3.984q-0.422 0-0.703 0.305t-0.281 0.727 0.281 0.703 0.703 0.281 0.727-0.281 0.305-0.703-0.305-0.727-0.727-0.305zM9.984 3.984q-0.422 0-0.703 0.305t-0.281 0.727 0.281 0.703 0.703 0.281 0.727-0.281 0.305-0.703-0.305-0.727-0.727-0.305zM18 2.016q0.844 0 1.43 0.563t0.586 1.406v16.031q0 0.844-0.586 1.406t-1.43 0.563h-12q-0.844 0-1.43-0.563t-0.586-1.406v-16.031q0-0.844 0.586-1.406t1.43-0.563h12zM9.188 16.828l5.625-5.672q1.172 1.172 1.172 2.859 0 1.641-1.172 2.813t-2.813 1.172-2.813-1.172z"></path>
        </symbol>
        <symbol id="icon-local_library" viewBox="0 0 24 24">
            <title>local_library</title>
            <path d="M12 8.016q-1.219 0-2.109-0.891t-0.891-2.109 0.891-2.109 2.109-0.891 2.109 0.891 0.891 2.109-0.891 2.109-2.109 0.891zM12 11.531q3.75-3.516 9-3.516v10.969q-5.203 0-9 3.563-3.797-3.563-9-3.563v-10.969q5.25 0 9 3.516z"></path>
        </symbol>
        <symbol id="icon-local_print_shopprint" viewBox="0 0 24 24">
            <title>local_print_shopprint</title>
            <path d="M18 3v3.984h-12v-3.984h12zM18.984 12q0.422 0 0.727-0.281t0.305-0.703-0.305-0.727-0.727-0.305-0.703 0.305-0.281 0.727 0.281 0.703 0.703 0.281zM15.984 18.984v-4.969h-7.969v4.969h7.969zM18.984 8.016q1.219 0 2.109 0.891t0.891 2.109v6h-3.984v3.984h-12v-3.984h-3.984v-6q0-1.219 0.891-2.109t2.109-0.891h13.969z"></path>
        </symbol>
        <symbol id="icon-directions_run" viewBox="0 0 24 24">
            <title>directions_run</title>
            <path d="M9.891 19.359l-6.984-1.359 0.375-2.016 4.922 0.984 1.594-8.109-1.828 0.703v3.422h-1.969v-4.688l5.203-2.203q0.141 0 0.398-0.047t0.398-0.047q0.984 0 1.688 0.984l0.984 1.594q1.359 2.391 4.313 2.391v2.016q-3.328 0-5.484-2.484l-0.609 3 2.109 1.969v7.5h-2.016v-6l-2.109-1.969zM13.5 5.484q-0.797 0-1.406-0.609t-0.609-1.406 0.609-1.383 1.406-0.586 1.383 0.586 0.586 1.383-0.586 1.406-1.383 0.609z"></path>
        </symbol>
        <symbol id="icon-restaurant" viewBox="0 0 24 24">
            <title>restaurant</title>
            <path d="M15.984 6q0-1.406 1.523-2.695t3.492-1.289v19.969h-2.484v-7.969h-2.531v-8.016zM11.016 9v-6.984h1.969v6.984q0 1.594-1.078 2.742t-2.672 1.242v9h-2.484v-9q-1.594-0.094-2.672-1.242t-1.078-2.742v-6.984h2.016v6.984h1.969v-6.984h2.016v6.984h2.016z"></path>
        </symbol>
        <symbol id="icon-transfer_within_a_station" viewBox="0 0 24 24">
            <title>transfer_within_a_station</title>
            <path d="M5.766 8.906l-2.766 14.109h2.109l1.734-8.016 2.156 2.016v6h2.016v-7.547l-2.063-2.063 0.609-3q2.109 2.578 5.438 2.578v-1.969q-1.359 0-2.508-0.68t-1.852-1.805l-0.938-1.594q-0.516-0.938-1.688-0.938-0.422 0-0.75 0.141l-5.25 2.156v4.688h1.969v-3.328l1.781-0.75zM9.516 5.484q-0.797 0-1.406-0.586t-0.609-1.383 0.609-1.406 1.406-0.609 1.383 0.609 0.586 1.406-0.586 1.383-1.383 0.586zM19.5 19.734v-1.734l2.484 2.484-2.484 2.531v-1.781h-5.484v-1.5h5.484zM16.5 15.516h5.484v1.5h-5.484v1.734l-2.484-2.484 2.484-2.531v1.781z"></path>
        </symbol>
        <symbol id="icon-departure_board" viewBox="0 0 24 24">
            <title>departure_board</title>
            <path d="M16.5 3.984v4.266l2.859 1.688-0.75 1.219-3.609-2.156v-5.016h1.5zM15.984 12.984q2.063 0 3.539-1.453t1.477-3.516-1.477-3.539-3.539-1.477-3.516 1.477-1.453 3.539 1.453 3.516 3.516 1.453zM13.5 18.984q0.656 0 1.078-0.445t0.422-1.055-0.422-1.055-1.078-0.445-1.078 0.445-0.422 1.055 0.422 1.055 1.078 0.445zM3 12.984h8.109q-2.109-2.016-2.109-4.969h-6v4.969zM4.5 18.984q0.656 0 1.078-0.445t0.422-1.055-0.422-1.055-1.078-0.445-1.078 0.445-0.422 1.055 0.422 1.055 1.078 0.445zM15.984 0.984q2.906 0 4.969 2.063t2.063 4.969q0 2.625-1.734 4.57t-4.266 2.32v3.094q0 1.266-1.031 2.203v1.781q0 0.422-0.281 0.727t-0.703 0.305h-0.984q-0.422 0-0.727-0.305t-0.305-0.727v-0.984h-7.969v0.984q0 0.422-0.305 0.727t-0.727 0.305h-0.984q-0.422 0-0.703-0.305t-0.281-0.727v-1.781q-1.031-0.938-1.031-2.203v-9.984q0-2.391 2.063-3.211t5.953-0.82q0.188 0 0.609 0.023t0.609 0.023q2.109-3.047 5.766-3.047z"></path>
        </symbol>
        <symbol id="icon-arrow_back" viewBox="0 0 24 24">
            <title>arrow_back</title>
            <path d="M20.016 11.016v1.969h-12.188l5.578 5.625-1.406 1.406-8.016-8.016 8.016-8.016 1.406 1.406-5.578 5.625h12.188z"></path>
        </symbol>
        <symbol id="icon-arrow_forward" viewBox="0 0 24 24">
            <title>arrow_forward</title>
            <path d="M12 3.984l8.016 8.016-8.016 8.016-1.406-1.406 5.578-5.625h-12.188v-1.969h12.188l-5.578-5.625z"></path>
        </symbol>
        <symbol id="icon-event_available" viewBox="0 0 24 24">
            <title>event_available</title>
            <path d="M18.984 18.984v-10.969h-13.969v10.969h13.969zM18.984 3q0.797 0 1.406 0.609t0.609 1.406v13.969q0 0.797-0.609 1.406t-1.406 0.609h-13.969q-0.844 0-1.43-0.586t-0.586-1.43v-13.969q0-0.797 0.586-1.406t1.43-0.609h0.984v-2.016h2.016v2.016h7.969v-2.016h2.016v2.016h0.984zM16.547 11.063l-5.953 5.953-3.188-3.188 1.078-1.078 2.109 2.109 4.875-4.875z"></path>
        </symbol>
        <symbol id="icon-event_busy" viewBox="0 0 24 24">
            <title>event_busy</title>
            <path d="M18.984 18.984v-10.969h-13.969v10.969h13.969zM18.984 3q0.797 0 1.406 0.609t0.609 1.406v13.969q0 0.797-0.609 1.406t-1.406 0.609h-13.969q-0.844 0-1.43-0.586t-0.586-1.43v-13.969q0-0.797 0.586-1.406t1.43-0.609h0.984v-2.016h2.016v2.016h7.969v-2.016h2.016v2.016h0.984zM9.328 17.016l-1.078-1.078 2.438-2.438-2.438-2.438 1.078-1.078 2.438 2.438 2.438-2.438 1.031 1.078-2.438 2.438 2.438 2.438-1.031 1.078-2.438-2.438z"></path>
        </symbol>
        <symbol id="icon-event_note" viewBox="0 0 24 24">
            <title>event_note</title>
            <path d="M14.016 14.016v1.969h-7.031v-1.969h7.031zM18.984 18.984v-10.969h-13.969v10.969h13.969zM18.984 3q0.797 0 1.406 0.609t0.609 1.406v13.969q0 0.797-0.609 1.406t-1.406 0.609h-13.969q-0.844 0-1.43-0.586t-0.586-1.43v-13.969q0-0.797 0.586-1.406t1.43-0.609h0.984v-2.016h2.016v2.016h7.969v-2.016h2.016v2.016h0.984zM17.016 9.984v2.016h-10.031v-2.016h10.031z"></path>
        </symbol>
        <symbol id="icon-cake1" viewBox="0 0 24 24">
            <title>cake1</title>
            <path d="M18 9q1.219 0 2.109 0.891t0.891 2.109v1.547q0 0.797-0.586 1.383t-1.383 0.586-1.359-0.563l-2.156-2.156-2.156 2.156q-0.563 0.563-1.383 0.563t-1.383-0.563l-2.109-2.156-2.156 2.156q-0.563 0.563-1.359 0.563t-1.383-0.586-0.586-1.383v-1.547q0-1.219 0.891-2.109t2.109-0.891h5.016v-2.016h1.969v2.016h5.016zM16.594 15.984q1.031 1.031 2.438 1.031 1.031 0 1.969-0.609v4.594q0 0.422-0.281 0.703t-0.703 0.281h-16.031q-0.422 0-0.703-0.281t-0.281-0.703v-4.594q0.891 0.609 1.969 0.609 1.406 0 2.438-1.031l1.078-1.078 1.078 1.078q0.984 0.984 2.438 0.984t2.438-0.984l1.078-1.078zM12 6q-0.797 0-1.406-0.609t-0.609-1.406q0-0.516 0.328-1.031l1.688-2.953 1.688 2.953q0.328 0.516 0.328 1.031 0 0.844-0.586 1.43t-1.43 0.586z"></path>
        </symbol>
        <symbol id="icon-mood_bad" viewBox="0 0 24 24">
            <title>mood_bad</title>
            <path d="M12 14.016q1.734 0 3.117 0.961t1.992 2.508h-10.219q0.609-1.547 1.992-2.508t3.117-0.961zM8.484 11.016q-0.609 0-1.055-0.445t-0.445-1.055 0.445-1.055 1.055-0.445 1.055 0.445 0.445 1.055-0.445 1.055-1.055 0.445zM15.516 11.016q-0.609 0-1.055-0.445t-0.445-1.055 0.445-1.055 1.055-0.445 1.055 0.445 0.445 1.055-0.445 1.055-1.055 0.445zM12 20.016q3.281 0 5.648-2.367t2.367-5.648-2.367-5.648-5.648-2.367-5.648 2.367-2.367 5.648 2.367 5.648 5.648 2.367zM12 2.016q4.125 0 7.055 2.93t2.93 7.055-2.93 7.055-7.055 2.93-7.055-2.93-2.93-7.055 2.93-7.055 7.055-2.93z"></path>
        </symbol>
        <symbol id="icon-sentiment_dissatisfied" viewBox="0 0 24 24">
            <title>sentiment_dissatisfied</title>
            <path d="M12 16.5q-1.031 0-1.969 0.516l-0.516-0.563q-0.047-0.047-0.516-0.563 1.313-0.891 3-0.891 1.594 0 3 0.891-0.094 0.047-0.539 0.539t-0.492 0.586q-0.891-0.516-1.969-0.516zM12 20.016q3.281 0 5.648-2.367t2.367-5.648-2.367-5.648-5.648-2.367-5.648 2.367-2.367 5.648 2.367 5.648 5.648 2.367zM12 2.016q4.125 0 7.055 2.93t2.93 7.055-2.93 7.055-7.055 2.93-7.055-2.93-2.93-7.055 2.93-7.055 7.055-2.93zM6.984 9.516q0-0.609 0.445-1.055t1.055-0.445 1.055 0.445 0.445 1.055-0.445 1.055-1.055 0.445-1.055-0.445-0.445-1.055zM14.016 9.516q0-0.609 0.445-1.055t1.055-0.445 1.055 0.445 0.445 1.055-0.445 1.055-1.055 0.445-1.055-0.445-0.445-1.055z"></path>
        </symbol>
        <symbol id="icon-sentiment_neutral" viewBox="0 0 24 24">
            <title>sentiment_neutral</title>
            <path d="M12 20.016q3.281 0 5.648-2.367t2.367-5.648-2.367-5.648-5.648-2.367-5.648 2.367-2.367 5.648 2.367 5.648 5.648 2.367zM12 2.016q4.125 0 7.055 2.93t2.93 7.055-2.93 7.055-7.055 2.93-7.055-2.93-2.93-7.055 2.93-7.055 7.055-2.93zM6.984 9.516q0-0.609 0.445-1.055t1.055-0.445 1.055 0.445 0.445 1.055-0.445 1.055-1.055 0.445-1.055-0.445-0.445-1.055zM14.016 9.516q0-0.609 0.445-1.055t1.055-0.445 1.055 0.445 0.445 1.055-0.445 1.055-1.055 0.445-1.055-0.445-0.445-1.055zM9 15.516h6v0.984h-6v-0.984z"></path>
        </symbol>
        <symbol id="icon-sentiment_satisfied" viewBox="0 0 24 24">
            <title>sentiment_satisfied</title>
            <path d="M12 15.984q1.031 0 1.969-0.516 0.891 1.031 1.031 1.172-1.359 0.844-3 0.844-1.594 0-2.953-0.844 0.563-0.75 0.984-1.172 0.891 0.516 1.969 0.516zM12 20.016q3.281 0 5.648-2.367t2.367-5.648-2.367-5.648-5.648-2.367-5.648 2.367-2.367 5.648 2.367 5.648 5.648 2.367zM12 2.016q4.125 0 7.055 2.93t2.93 7.055-2.93 7.055-7.055 2.93-7.055-2.93-2.93-7.055 2.93-7.055 7.055-2.93zM6.984 9.516q0-0.609 0.445-1.055t1.055-0.445 1.055 0.445 0.445 1.055-0.445 1.055-1.055 0.445-1.055-0.445-0.445-1.055zM14.016 9.516q0-0.609 0.445-1.055t1.055-0.445 1.055 0.445 0.445 1.055-0.445 1.055-1.055 0.445-1.055-0.445-0.445-1.055z"></path>
        </symbol>
        <symbol id="icon-sentiment_very_dissatisfied" viewBox="0 0 24 24">
            <title>sentiment_very_dissatisfied</title>
            <path d="M12 14.016q1.734 0 3.117 0.961t1.992 2.508h-1.641q-1.172-1.969-3.469-1.969t-3.469 1.969h-1.641q0.609-1.547 1.992-2.508t3.117-0.961zM12 20.016q3.281 0 5.648-2.367t2.367-5.648-2.367-5.648-5.648-2.367-5.648 2.367-2.367 5.648 2.367 5.648 5.648 2.367zM12 2.016q4.125 0 7.055 2.93t2.93 7.055-2.93 7.055-7.055 2.93-7.055-2.93-2.93-7.055 2.93-7.055 7.055-2.93zM6.984 9.516q0-0.609 0.445-1.055t1.055-0.445 1.055 0.445 0.445 1.055-0.445 1.055-1.055 0.445-1.055-0.445-0.445-1.055zM14.016 9.516q0-0.609 0.445-1.055t1.055-0.445 1.055 0.445 0.445 1.055-0.445 1.055-1.055 0.445-1.055-0.445-0.445-1.055z"></path>
        </symbol>
        <symbol id="icon-sentiment_very_satisfied" viewBox="0 0 24 24">
            <title>sentiment_very_satisfied</title>
            <path d="M6.984 14.016h10.031q-0.609 1.781-1.969 2.883t-3.047 1.102-3.047-1.102-1.969-2.883zM12 20.016q3.281 0 5.648-2.367t2.367-5.648-2.367-5.648-5.648-2.367-5.648 2.367-2.367 5.648 2.367 5.648 5.648 2.367zM12 2.016q4.125 0 7.055 2.93t2.93 7.055-2.93 7.055-7.055 2.93-7.055-2.93-2.93-7.055 2.93-7.055 7.055-2.93zM6.984 9.516q0-0.609 0.445-1.055t1.055-0.445 1.055 0.445 0.445 1.055-0.445 1.055-1.055 0.445-1.055-0.445-0.445-1.055zM14.016 9.516q0-0.609 0.445-1.055t1.055-0.445 1.055 0.445 0.445 1.055-0.445 1.055-1.055 0.445-1.055-0.445-0.445-1.055z"></path>
        </symbol>
        <symbol id="icon-check_box" viewBox="0 0 24 24">
            <title>check_box</title>
            <path d="M9.984 17.016l9-9-1.406-1.453-7.594 7.594-3.563-3.563-1.406 1.406zM18.984 3q0.844 0 1.43 0.586t0.586 1.43v13.969q0 0.844-0.586 1.43t-1.43 0.586h-13.969q-0.844 0-1.43-0.586t-0.586-1.43v-13.969q0-0.844 0.586-1.43t1.43-0.586h13.969z"></path>
        </symbol>
        <symbol id="icon-check_box_outline_blank" viewBox="0 0 24 24">
            <title>check_box_outline_blank</title>
            <path d="M18.984 3q0.797 0 1.406 0.609t0.609 1.406v13.969q0 0.797-0.609 1.406t-1.406 0.609h-13.969q-0.797 0-1.406-0.609t-0.609-1.406v-13.969q0-0.797 0.609-1.406t1.406-0.609h13.969zM18.984 5.016h-13.969v13.969h13.969v-13.969z"></path>
        </symbol>
        <symbol id="icon-accessibility" viewBox="0 0 24 24">
            <title>accessibility</title>
            <path d="M21 9h-6v12.984h-2.016v-6h-1.969v6h-2.016v-12.984h-6v-2.016h18v2.016zM12 2.016q0.797 0 1.406 0.586t0.609 1.383-0.609 1.406-1.406 0.609-1.406-0.609-0.609-1.406 0.609-1.383 1.406-0.586z"></path>
        </symbol>
        <symbol id="icon-alarm_off" viewBox="0 0 24 24">
            <title>alarm_off</title>
            <path d="M8.016 3.281l-0.844 0.703-1.453-1.406 0.891-0.703zM16.453 18.375l-9.844-9.844q-1.594 1.969-1.594 4.453 0 2.906 2.039 4.969t4.945 2.063q2.438 0 4.453-1.641zM2.906 2.297q3.563 3.563 10.148 10.125t8.32 8.297l-1.266 1.266-2.203-2.203q-2.578 2.203-5.906 2.203-3.75 0-6.375-2.648t-2.625-6.352q0-1.359 0.656-3.094t1.547-2.766l-0.797-0.797-1.125 0.938-1.406-1.453 1.125-0.891-1.359-1.359zM21.984 5.719l-1.266 1.547-4.594-3.891 1.266-1.5zM12 6q-1.266 0-2.391 0.422l-1.547-1.5q1.969-0.938 3.938-0.938 3.75 0 6.375 2.648t2.625 6.352q0 2.063-0.891 3.938l-1.547-1.5q0.422-1.125 0.422-2.438 0-2.906-2.039-4.945t-4.945-2.039z"></path>
        </symbol>
        <symbol id="icon-alarm_on" viewBox="0 0 24 24">
            <title>alarm_on</title>
            <path d="M10.547 14.531l4.922-4.969 1.078 1.078-6 6-3.188-3.188 1.031-1.031zM12 20.016q2.906 0 4.945-2.063t2.039-4.969-2.039-4.945-4.945-2.039-4.945 2.039-2.039 4.945 2.039 4.969 4.945 2.063zM12 3.984q3.75 0 6.375 2.648t2.625 6.352-2.625 6.352-6.375 2.648-6.375-2.648-2.625-6.352 2.625-6.352 6.375-2.648zM7.875 3.375l-4.594 3.844-1.266-1.5 4.594-3.844zM21.984 5.719l-1.266 1.547-4.594-3.891 1.266-1.5z"></path>
        </symbol>
        <symbol id="icon-check_circle" viewBox="0 0 24 24">
            <title>check_circle</title>
            <path d="M9.984 17.016l9-9-1.406-1.453-7.594 7.594-3.563-3.563-1.406 1.406zM12 2.016q4.125 0 7.055 2.93t2.93 7.055-2.93 7.055-7.055 2.93-7.055-2.93-2.93-7.055 2.93-7.055 7.055-2.93z"></path>
        </symbol>
        <symbol id="icon-delete" viewBox="0 0 24 24">
            <title>delete</title>
            <path d="M18.984 3.984v2.016h-13.969v-2.016h3.469l1.031-0.984h4.969l1.031 0.984h3.469zM6 18.984v-12h12v12q0 0.797-0.609 1.406t-1.406 0.609h-7.969q-0.797 0-1.406-0.609t-0.609-1.406z"></path>
        </symbol>
        <symbol id="icon-face" viewBox="0 0 24 24">
            <title>face</title>
            <path d="M12 20.016q3.281 0 5.648-2.367t2.367-5.648q0-1.031-0.328-2.25-1.031 0.234-2.297 0.234-2.156 0-4.523-1.242t-3.586-2.977q-1.547 3.75-5.25 5.391-0.047 0.281-0.047 0.844 0 3.281 2.367 5.648t5.648 2.367zM12 2.016q4.125 0 7.055 2.93t2.93 7.055-2.93 7.055-7.055 2.93-7.055-2.93-2.93-7.055 2.93-7.055 7.055-2.93zM15 11.766q0.516 0 0.891 0.352t0.375 0.867-0.375 0.891-0.891 0.375-0.891-0.375-0.375-0.891 0.375-0.867 0.891-0.352zM9 11.766q0.516 0 0.891 0.352t0.375 0.867-0.375 0.891-0.891 0.375-0.891-0.375-0.375-0.891 0.375-0.867 0.891-0.352z"></path>
        </symbol>
        <symbol id="icon-help" viewBox="0 0 24 24">
            <title>help</title>
            <path d="M15.047 11.25q0.938-0.938 0.938-2.25 0-1.641-1.172-2.813t-2.813-1.172-2.813 1.172-1.172 2.813h1.969q0-0.797 0.609-1.406t1.406-0.609 1.406 0.609 0.609 1.406-0.609 1.406l-1.219 1.266q-1.172 1.266-1.172 2.813v0.516h1.969q0-1.547 1.172-2.813zM12.984 18.984v-1.969h-1.969v1.969h1.969zM12 2.016q4.125 0 7.055 2.93t2.93 7.055-2.93 7.055-7.055 2.93-7.055-2.93-2.93-7.055 2.93-7.055 7.055-2.93z"></path>
        </symbol>
        <symbol id="icon-info2" viewBox="0 0 24 24">
            <title>info2</title>
            <path d="M12.984 9v-2.016h-1.969v2.016h1.969zM12.984 17.016v-6h-1.969v6h1.969zM12 2.016q4.125 0 7.055 2.93t2.93 7.055-2.93 7.055-7.055 2.93-7.055-2.93-2.93-7.055 2.93-7.055 7.055-2.93z"></path>
        </symbol>
        <symbol id="icon-info_outline" viewBox="0 0 24 24">
            <title>info_outline</title>
            <path d="M11.016 9v-2.016h1.969v2.016h-1.969zM12 20.016q3.281 0 5.648-2.367t2.367-5.648-2.367-5.648-5.648-2.367-5.648 2.367-2.367 5.648 2.367 5.648 5.648 2.367zM12 2.016q4.125 0 7.055 2.93t2.93 7.055-2.93 7.055-7.055 2.93-7.055-2.93-2.93-7.055 2.93-7.055 7.055-2.93zM11.016 17.016v-6h1.969v6h-1.969z"></path>
        </symbol>
        <symbol id="icon-perm_contact_calendar" viewBox="0 0 24 24">
            <title>perm_contact_calendar</title>
            <path d="M18 18v-0.984q0-1.359-2.063-2.227t-3.938-0.867-3.938 0.867-2.063 2.227v0.984h12zM12 6q-1.219 0-2.109 0.891t-0.891 2.109 0.891 2.109 2.109 0.891 2.109-0.891 0.891-2.109-0.891-2.109-2.109-0.891zM18.984 3q0.797 0 1.406 0.609t0.609 1.406v13.969q0 0.797-0.609 1.406t-1.406 0.609h-13.969q-0.844 0-1.43-0.586t-0.586-1.43v-13.969q0-0.844 0.586-1.43t1.43-0.586h0.984v-2.016h2.016v2.016h7.969v-2.016h2.016v2.016h0.984z"></path>
        </symbol>
        <symbol id="icon-search2" viewBox="0 0 24 24">
            <title>search2</title>
            <path d="M9.516 14.016q1.875 0 3.188-1.313t1.313-3.188-1.313-3.188-3.188-1.313-3.188 1.313-1.313 3.188 1.313 3.188 3.188 1.313zM15.516 14.016l4.969 4.969-1.5 1.5-4.969-4.969v-0.797l-0.281-0.281q-1.781 1.547-4.219 1.547-2.719 0-4.617-1.875t-1.898-4.594 1.898-4.617 4.617-1.898 4.594 1.898 1.875 4.617q0 0.984-0.469 2.227t-1.078 1.992l0.281 0.281h0.797z"></path>
        </symbol>
        <symbol id="icon-settings1" viewBox="0 0 24 24">
            <title>settings1</title>
            <path d="M12 15.516q1.453 0 2.484-1.031t1.031-2.484-1.031-2.484-2.484-1.031-2.484 1.031-1.031 2.484 1.031 2.484 2.484 1.031zM19.453 12.984l2.109 1.641q0.328 0.234 0.094 0.656l-2.016 3.469q-0.188 0.328-0.609 0.188l-2.484-0.984q-0.984 0.703-1.688 0.984l-0.375 2.625q-0.094 0.422-0.469 0.422h-4.031q-0.375 0-0.469-0.422l-0.375-2.625q-0.891-0.375-1.688-0.984l-2.484 0.984q-0.422 0.141-0.609-0.188l-2.016-3.469q-0.234-0.422 0.094-0.656l2.109-1.641q-0.047-0.328-0.047-0.984t0.047-0.984l-2.109-1.641q-0.328-0.234-0.094-0.656l2.016-3.469q0.188-0.328 0.609-0.188l2.484 0.984q0.984-0.703 1.688-0.984l0.375-2.625q0.094-0.422 0.469-0.422h4.031q0.375 0 0.469 0.422l0.375 2.625q0.891 0.375 1.688 0.984l2.484-0.984q0.422-0.141 0.609 0.188l2.016 3.469q0.234 0.422-0.094 0.656l-2.109 1.641q0.047 0.328 0.047 0.984t-0.047 0.984z"></path>
        </symbol>
        <symbol id="icon-today" viewBox="0 0 24 24">
            <title>today</title>
            <path d="M6.984 9.984h5.016v5.016h-5.016v-5.016zM18.984 18.984v-10.969h-13.969v10.969h13.969zM18.984 3q0.797 0 1.406 0.609t0.609 1.406v13.969q0 0.797-0.609 1.406t-1.406 0.609h-13.969q-0.844 0-1.43-0.586t-0.586-1.43v-13.969q0-0.797 0.586-1.406t1.43-0.609h0.984v-2.016h2.016v2.016h7.969v-2.016h2.016v2.016h0.984z"></path>
        </symbol>
        <symbol id="icon-date_range" viewBox="0 0 24 24">
            <title>date_range</title>
            <path d="M18.984 20.016v-11.016h-13.969v11.016h13.969zM18.984 3.984q0.797 0 1.406 0.609t0.609 1.406v14.016q0 0.797-0.609 1.383t-1.406 0.586h-13.969q-0.844 0-1.43-0.563t-0.586-1.406v-14.016q0-0.797 0.586-1.406t1.43-0.609h0.984v-1.969h2.016v1.969h7.969v-1.969h2.016v1.969h0.984zM17.016 11.016v1.969h-2.016v-1.969h2.016zM12.984 11.016v1.969h-1.969v-1.969h1.969zM9 11.016v1.969h-2.016v-1.969h2.016z"></path>
        </symbol>
        <symbol id="icon-pan_tool" viewBox="0 0 24 24">
            <title>pan_tool</title>
            <path d="M23.016 5.484v14.531q0 1.641-1.195 2.813t-2.836 1.172h-7.266q-1.688 0-2.859-1.172l-7.875-8.016q1.266-1.219 1.313-1.219 0.328-0.281 0.797-0.281 0.328 0 0.609 0.141l4.313 2.438v-11.906q0-0.609 0.445-1.055t1.055-0.445 1.055 0.445 0.445 1.055v7.031h0.984v-9.516q0-0.656 0.422-1.078t1.078-0.422 1.078 0.422 0.422 1.078v9.516h0.984v-8.531q0-0.609 0.445-1.055t1.055-0.445 1.055 0.445 0.445 1.055v8.531h1.031v-5.531q0-0.609 0.445-1.055t1.055-0.445 1.055 0.445 0.445 1.055z"></path>
        </symbol>
        <symbol id="icon-accessible_forward" viewBox="0 0 24 24">
            <title>accessible_forward</title>
            <path d="M17.016 13.5q0.797 0 1.383 0.609t0.586 1.406v5.484h-1.969v-5.016h-5.016q-1.078 0-1.688-0.961t-0.141-1.945l1.828-4.078h-2.203l-0.656 1.547-1.922-0.563 0.656-1.781q0.516-1.219 1.875-1.219h5.203q1.125 0 1.734 0.938t0.141 1.922l-1.688 3.656h1.875zM14.016 17.016q0 2.063-1.477 3.516t-3.539 1.453-3.539-1.453-1.477-3.516 1.477-3.539 3.539-1.477v2.016q-1.219 0-2.109 0.891t-0.891 2.109 0.891 2.109 2.109 0.891 2.109-0.891 0.891-2.109h2.016zM15 4.547q0-0.844 0.586-1.43t1.43-0.586 1.406 0.586 0.563 1.43-0.563 1.43-1.406 0.586-1.43-0.586-0.586-1.43z"></path>
        </symbol>
        <symbol id="icon-calendar_today" viewBox="0 0 24 24">
            <title>calendar_today</title>
            <path d="M20.016 21v-12.984h-16.031v12.984h16.031zM20.016 3q0.797 0 1.383 0.609t0.586 1.406v15.984q0 0.797-0.586 1.406t-1.383 0.609h-16.031q-0.797 0-1.383-0.609t-0.586-1.406v-15.984q0-0.797 0.586-1.406t1.383-0.609h1.031v-2.016h1.969v2.016h10.031v-2.016h1.969v2.016h1.031z"></path>
        </symbol>
        <symbol id="icon-all_inbox" viewBox="0 0 24 24">
            <title>all_inbox</title>
            <path d="M15 15.984h6v3q0 0.797-0.609 1.406t-1.406 0.609h-13.969q-0.797 0-1.406-0.609t-0.609-1.406v-3h6q0 1.219 0.891 2.109t2.109 0.891 2.109-0.891 0.891-2.109zM18.984 9v-3.984h-13.969v3.984h3.984q0 1.219 0.891 2.109t2.109 0.891 2.109-0.891 0.891-2.109h3.984zM18.984 3q0.797 0 1.406 0.609t0.609 1.406v6.984q0 0.797-0.609 1.406t-1.406 0.609h-13.969q-0.797 0-1.406-0.609t-0.609-1.406v-6.984q0-0.797 0.609-1.406t1.406-0.609h13.969z"></path>
        </symbol>
        <symbol id="icon-bus_alert" viewBox="0 0 24 24">
            <title>bus_alert</title>
            <path d="M15 9.984h2.016v2.016h-2.016v-2.016zM15 3.984h2.016v5.016h-2.016v-5.016zM15.984 12.984q2.063 0 3.539-1.453t1.477-3.516-1.477-3.539-3.539-1.477-3.516 1.477-1.453 3.539 1.453 3.516 3.516 1.453zM13.5 18.984q0.656 0 1.078-0.445t0.422-1.055-0.422-1.055-1.078-0.445-1.078 0.445-0.422 1.055 0.422 1.055 1.078 0.445zM3 12.984h8.109q-2.109-2.016-2.109-4.969h-6v4.969zM4.5 18.984q0.656 0 1.078-0.445t0.422-1.055-0.422-1.055-1.078-0.445-1.078 0.445-0.422 1.055 0.422 1.055 1.078 0.445zM15.984 0.984q2.906 0.047 4.945 2.109t2.039 4.922q0 2.484-1.734 4.5t-4.219 2.391v3.094q0 1.266-1.031 2.203v1.781q0 0.422-0.281 0.727t-0.703 0.305h-0.984q-0.422 0-0.727-0.305t-0.305-0.727v-0.984h-7.969v0.984q0 0.422-0.305 0.727t-0.727 0.305h-0.984q-0.422 0-0.703-0.305t-0.281-0.727v-1.781q-1.031-0.938-1.031-2.203v-9.984q0-2.391 2.063-3.211t5.953-0.82q0.188 0 0.609 0.023t0.609 0.023q0.891-1.266 2.555-2.156t3.211-0.891z"></path>
        </symbol>
        <symbol id="icon-print_disabled" viewBox="0 0 24 24">
            <title>print_disabled</title>
            <path d="M8.016 18.984h7.875l-4.969-4.969h-2.906v4.969zM1.219 1.781l21 20.906-1.313 1.313-3-3h-11.906v-3.984h-3.984v-6q0-1.172 0.844-2.039t2.063-0.961l-4.922-5.016zM18 6.984h-9l-3-2.906v-1.078h12v3.984zM18.984 9.984q-0.422 0-0.703 0.305t-0.281 0.727 0.281 0.703 0.703 0.281 0.727-0.281 0.305-0.703-0.305-0.727-0.727-0.305zM19.078 17.016l-9.094-9h9q1.266 0 2.133 0.867t0.867 2.133v6h-2.906z"></path>
        </symbol>
        <symbol id="icon-railway_alert" viewBox="0 0 24 24">
            <title>railway_alert</title>
            <path d="M15 9.984h2.016v2.016h-2.016v-2.016zM15 3.984h2.016v5.016h-2.016v-5.016zM14.672 12.797q0.188 0.094 0.422 0.141h0.281l0.141 0.047h0.984l0.188-0.047q1.781-0.281 3.023-1.734t1.242-3.188q0-2.016-1.453-3.492t-3.516-1.523q-1.313 0-2.531 0.703l-0.047 0.047-0.469 0.281v0.047q-0.609 0.469-0.844 0.797l-0.375 0.563-0.188 0.375-0.094 0.141-0.141 0.375q-0.281 0.844-0.281 1.688 0 1.5 1.008 2.883t2.414 1.852q0.047 0.047 0.234 0.047zM9 18.984q0.797 0 1.406-0.586t0.609-1.383-0.609-1.406-1.406-0.609-1.406 0.609-0.609 1.406 0.609 1.383 1.406 0.586zM3 12h7.266q-1.266-1.781-1.266-3.984 0-0.469 0.094-1.031h-6.094v5.016zM23.016 8.016q0 2.484-1.758 4.523t-4.242 2.367v2.578q0 1.453-1.031 2.484t-2.484 1.031l1.5 1.5v0.516h-12v-0.516l1.5-1.5q-1.453 0-2.484-1.031t-1.031-2.484v-10.5q0-2.391 2.063-3.188t5.953-0.797h0.188q1.359 0 1.875 0.047 0.844-0.844 2.297-1.453t2.625-0.609q2.859 0 4.945 2.086t2.086 4.945z"></path>
        </symbol>
        <symbol id="icon-emoji_transportation" viewBox="0 0 24 24">
            <title>emoji_transportation</title>
            <path d="M5.016 18.984h1.969v2.016h-1.969v-2.016zM5.016 15h1.969v2.016h-1.969v-2.016zM9.984 5.016h2.016v1.969h-2.016v-1.969zM5.016 11.016h1.969v1.969h-1.969v-1.969zM14.016 9v-5.016h-6v5.016h-5.016v12h-0.984v-12.984h4.969v-5.016h8.016v6h-0.984zM20.016 17.016q0.422 0 0.703-0.305t0.281-0.727-0.281-0.703-0.703-0.281-0.727 0.281-0.305 0.703 0.305 0.727 0.727 0.305zM12 17.016q0.422 0 0.703-0.305t0.281-0.727-0.281-0.703-0.703-0.281-0.703 0.281-0.281 0.703 0.281 0.727 0.703 0.305zM12.422 11.016l-1.031 3h9.234l-1.031-3h-7.172zM20.578 10.641l1.406 4.125v5.531q0 0.281-0.211 0.492t-0.492 0.211h-0.609q-0.281 0-0.469-0.234t-0.188-0.516v-1.266h-8.016v1.266q0 0.281-0.211 0.516t-0.492 0.234h-0.609q-0.656 0-0.656-0.703l-0.047-5.531 1.453-4.125q0.234-0.656 0.984-0.656h7.172q0.75 0 0.984 0.656z"></path>
        </symbol>
        <symbol id="icon-apartment" viewBox="0 0 24 24">
            <title>apartment</title>
            <path d="M18.984 15v-2.016h-1.969v2.016h1.969zM18.984 18.984v-1.969h-1.969v1.969h1.969zM15 6.984v-1.969h-2.016v1.969h2.016zM15 11.016v-2.016h-2.016v2.016h2.016zM15 15v-2.016h-2.016v2.016h2.016zM11.016 6.984v-1.969h-2.016v1.969h2.016zM11.016 11.016v-2.016h-2.016v2.016h2.016zM11.016 15v-2.016h-2.016v2.016h2.016zM6.984 11.016v-2.016h-1.969v2.016h1.969zM6.984 15v-2.016h-1.969v2.016h1.969zM6.984 18.984v-1.969h-1.969v1.969h1.969zM17.016 11.016h3.984v9.984h-8.016v-3.984h-1.969v3.984h-8.016v-14.016h3.984v-3.984h10.031v8.016z"></path>
        </symbol>
        <symbol id="icon-bathtub" viewBox="0 0 24 24">
            <title>bathtub</title>
            <path d="M20.016 12.984h1.969v6q0 0.797-0.586 1.406t-1.383 0.609q0 0.422-0.305 0.703t-0.727 0.281h-13.969q-0.422 0-0.727-0.281t-0.305-0.703q-0.797 0-1.383-0.609t-0.586-1.406v-6h3v-0.75q0-0.891 0.68-1.57t1.57-0.68q0.938 0 1.688 0.75l1.359 1.547q0.281 0.328 0.844 0.703h6.844v-8.156q0-0.328-0.234-0.586t-0.609-0.258q-0.328 0-0.563 0.234l-1.266 1.266q0.094 0.375 0.094 0.516 0 0.516-0.328 1.078l-2.766-2.766q0.563-0.328 1.078-0.328 0.234 0 0.516 0.094l1.266-1.266q0.797-0.797 1.969-0.797t2.016 0.82 0.844 1.992v8.156zM5.016 6.984q0-0.844 0.563-1.406t1.406-0.563 1.43 0.563 0.586 1.406-0.586 1.43-1.43 0.586-1.406-0.586-0.563-1.43z"></path>
        </symbol>
        <symbol id="icon-dry_cleaning" viewBox="0 0 24 24">
            <title>dry_cleaning</title>
            <path d="M18.563 14.016q0.422 0 0.422-0.422 0-0.328-0.234-0.422l-6.75-3-6.75 3q-0.234 0.094-0.234 0.375 0 0.469 0.422 0.469h1.547v-1.031h10.031v1.031h1.547zM19.547 11.344q1.453 0.609 1.453 2.203v0.047q0 1.031-0.703 1.711t-1.734 0.68h-1.547v6h-10.031v-6h-1.547q-1.031 0-1.734-0.68t-0.703-1.711v-0.047q0-1.547 1.453-2.156l6.563-2.953v-0.609q-1.031-0.375-1.594-1.336t-0.375-2.086q0.188-0.891 0.844-1.523t1.547-0.82q1.406-0.234 2.484 0.656t1.078 2.297h-2.016q0-0.422-0.281-0.727t-0.703-0.305-0.703 0.305-0.281 0.727 0.281 0.703 0.703 0.281 0.703 0.281 0.281 0.703v1.453z"></path>
        </symbol>
        <symbol id="icon-liquor" viewBox="0 0 24 24">
            <title>liquor</title>
            <path d="M20.016 20.016v-2.016h-7.031v2.016h7.031zM12.984 10.453v1.547h7.031v-1.547l-0.984-0.328q-0.844-0.281-1.43-1.125t-0.586-1.734v-0.281h-1.031v0.281q0 2.156-2.016 2.859zM15.984 3.984v1.031h1.031v-1.031h-1.031zM20.625 8.531q1.359 0.469 1.359 1.922v9.563q0 0.797-0.586 1.383t-1.383 0.586h-7.031q-0.797 0-1.383-0.586t-0.586-1.383v-9.563q0-1.453 1.359-1.922l0.938-0.281q0.703-0.234 0.703-0.984v-4.266q0-0.422 0.281-0.703t0.703-0.281h3q0.422 0 0.703 0.281t0.281 0.703v4.266q0 0.656 0.703 0.938zM5.016 8.016v3h1.969v-3h-1.969zM3 14.016v-8.016h6v8.016q0 0.984-0.563 1.734t-1.453 1.078v3.188h2.016v1.969h-6v-1.969h2.016v-3.188q-0.891-0.328-1.453-1.078t-0.563-1.734z"></path>
        </symbol>
        <symbol id="icon-lunch_dining" viewBox="0 0 24 24">
            <title>lunch_dining</title>
            <path d="M2.016 15.984h19.969v2.016q0 0.797-0.586 1.406t-1.383 0.609h-16.031q-0.797 0-1.383-0.609t-0.586-1.406v-2.016zM5.344 13.5q-0.516 0-1.125 0.375-1.031 0.609-2.203 0.609v-1.969q0.516 0 1.125-0.375 1.078-0.656 2.203-0.656 1.078 0 2.156 0.656 0.609 0.375 1.172 0.375 0.516 0 1.125-0.375 1.078-0.656 2.203-0.656 1.078 0 2.156 0.656 0.609 0.375 1.172 0.375 0.516 0 1.125-0.375 1.078-0.656 2.203-0.656 1.078 0 2.156 0.656l1.172 0.375v1.969q-1.125 0-2.156-0.609-0.609-0.375-1.172-0.375-0.516 0-1.125 0.375-1.031 0.609-2.203 0.609-1.125 0-2.156-0.609-0.609-0.375-1.172-0.375-0.516 0-1.125 0.375-1.031 0.609-2.203 0.609-1.125 0-2.156-0.609-0.609-0.375-1.172-0.375zM21.984 9.984h-19.969q-0.234-2.438 2.719-4.219t7.266-1.781 7.266 1.781 2.719 4.219z"></path>
        </symbol>
        <symbol id="icon-nightlife" viewBox="0 0 24 24">
            <title>nightlife</title>
            <path d="M17.016 5.016h4.969v3h-3v9q0 1.219-0.891 2.109t-2.109 0.891-2.109-0.891-0.891-2.109 0.891-2.109 2.109-0.891q0.609 0 1.031 0.141v-9.141zM10.078 9l1.406-2.016h-6.984l1.406 2.016h4.172zM0.984 5.016h14.016l-6 9v3.984h2.016v2.016h-6v-2.016h1.969v-3.984z"></path>
        </symbol>
        <symbol id="icon-brunch_dining" viewBox="0 0 24 24">
            <title>brunch_dining</title>
            <path d="M6.984 15.984v-1.969h4.031v1.969h4.5q0.469 0 0.469 0.516v0.984q0 0.516-0.469 0.516h-13.031q-0.469 0-0.469-0.516v-0.984q0-0.516 0.469-0.516h4.5zM18 15.891l-0.422-0.422q-0.656-0.703-1.125-1.875t-0.469-2.109v-9.469h6v9.516q0 2.297-1.5 3.938l-0.469 0.516v4.031h1.969v1.969h-3.984v-6.094zM15.516 21.984h-13.031q-0.469 0-0.469-0.469v-1.5h13.969v1.5q0 0.469-0.469 0.469zM18 8.016h2.016v-4.031h-2.016v4.031z"></path>
        </symbol>
        <symbol id="icon-hot_tub" viewBox="0 0 24 24">
            <title>hot_tub</title>
            <path d="M14.672 5.859q1.547 1.5 1.266 3.703l-0.047 0.422h-1.922l0.141-0.563q0.234-1.266-0.75-2.25-1.594-1.594-1.313-3.75l0.047-0.422h1.922l-0.094 0.609q-0.234 1.266 0.656 2.203zM18.656 5.859q1.594 1.547 1.313 3.703l-0.094 0.422h-1.875l0.094-0.563q0.234-1.266-0.656-2.203l-0.094-0.047q-1.594-1.594-1.313-3.75l0.094-0.422h1.875l-0.094 0.609q-0.234 1.266 0.656 2.203zM18.984 20.016v-6h-1.969v6h1.969zM15 20.016v-6h-2.016v6h2.016zM11.016 20.016v-6h-2.016v6h2.016zM6.984 20.016v-6h-1.969v6h1.969zM11.156 12h10.828v8.016q0 0.797-0.586 1.383t-1.383 0.586h-16.031q-0.797 0-1.383-0.586t-0.586-1.383v-8.016h3v-0.75q0-0.938 0.68-1.594t1.57-0.656q0.938 0 1.688 0.75l1.359 1.547q0.188 0.234 0.844 0.703zM5.016 6q0-0.844 0.563-1.43t1.406-0.586 1.43 0.586 0.586 1.43-0.586 1.43-1.43 0.586-1.406-0.586-0.563-1.43z"></path>
        </symbol>
        <symbol id="icon-kitchen" viewBox="0 0 24 24">
            <title>kitchen</title>
            <path d="M8.016 12h1.969v5.016h-1.969v-5.016zM8.016 5.016h1.969v3h-1.969v-3zM18 9v-5.016h-12v5.016h12zM18 20.016v-9.047h-12v9.047h12zM18 2.016q0.844 0 1.43 0.563t0.586 1.406v16.031q0 0.797-0.609 1.383t-1.406 0.586h-12q-0.797 0-1.406-0.586t-0.609-1.383v-16.031q0-0.844 0.586-1.406t1.43-0.563h12z"></path>
        </symbol>
        <symbol id="icon-time2" viewBox="0 0 20 20">
            <title>time2</title>
            <path d="M10 20c-5.523 0-10-4.477-10-10s4.477-10 10-10v0c5.523 0 10 4.477 10 10s-4.477 10-10 10v0zM10 18c4.418 0 8-3.582 8-8s-3.582-8-8-8v0c-4.418 0-8 3.582-8 8s3.582 8 8 8v0zM9 10.41v-6.41h2v5.59l3.95 3.95-1.41 1.41-4.54-4.54z"></path>
        </symbol>
        <symbol id="icon-timer1" viewBox="0 0 20 20">
            <title>timer1</title>
            <path d="M16.32 7.1c1.044 1.339 1.675 3.045 1.675 4.898 0 4.418-3.582 8-8 8s-8-3.582-8-8c0-4.068 3.036-7.426 6.965-7.934l0.040-0.004v-2.060h2v2.060c1.46 0.18 2.8 0.76 3.9 1.62l1.46-1.46 1.42 1.42-1.46 1.45zM10 18c3.314 0 6-2.686 6-6s-2.686-6-6-6v0c-3.314 0-6 2.686-6 6s2.686 6 6 6v0zM7 0h6v2h-6v-2zM12.12 8.46l1.42 1.42-3.54 3.52-1.41-1.4 3.53-3.54z"></path>
        </symbol>
        <symbol id="icon-tuning" viewBox="0 0 20 20">
            <title>tuning</title>
            <path d="M17 16v4h-2v-4h-2v-3h6v3h-2zM1 9h6v3h-6v-3zM7 5h6v3h-6v-3zM3 0h2v8h-2v-8zM15 0h2v12h-2v-12zM9 0h2v4h-2v-4zM3 12h2v8h-2v-8zM9 8h2v12h-2v-12z"></path>
        </symbol>
        <symbol id="icon-dots-three-horizontal" viewBox="0 0 20 20">
            <title>dots-three-horizontal</title>
            <path d="M10.001 7.8c-1.215 0-2.201 0.985-2.201 2.2s0.986 2.2 2.201 2.2c1.215 0 2.199-0.985 2.199-2.2s-0.984-2.2-2.199-2.2zM3.001 7.8c-1.215 0-2.201 0.985-2.201 2.2s0.986 2.2 2.201 2.2c1.215 0 2.199-0.986 2.199-2.2s-0.984-2.2-2.199-2.2zM17.001 7.8c-1.215 0-2.201 0.985-2.201 2.2s0.986 2.2 2.201 2.2c1.215 0 2.199-0.985 2.199-2.2s-0.984-2.2-2.199-2.2z"></path>
        </symbol>
        <symbol id="icon-dots-three-vertical" viewBox="0 0 20 20">
            <title>dots-three-vertical</title>
            <path d="M10.001 7.8c-1.215 0-2.201 0.985-2.201 2.2s0.986 2.2 2.201 2.2c1.215 0 2.199-0.985 2.199-2.2s-0.984-2.2-2.199-2.2zM10.001 5.2c1.215 0 2.199-0.986 2.199-2.2s-0.984-2.2-2.199-2.2c-1.215 0-2.201 0.985-2.201 2.2s0.986 2.2 2.201 2.2zM10.001 14.8c-1.215 0-2.201 0.985-2.201 2.2s0.986 2.2 2.201 2.2c1.215 0 2.199-0.985 2.199-2.2s-0.984-2.2-2.199-2.2z"></path>
        </symbol>
        <symbol id="icon-open-book" viewBox="0 0 20 20">
            <title>open-book</title>
            <path d="M10.595 5.196l0.446 1.371c0.369-0.316 0.835-0.599 1.441-0.795 0.59-0.192 1.111-0.3 1.582-0.362l-0.43-1.323c-0.476 0.069-1.001 0.18-1.58 0.368s-1.055 0.45-1.459 0.741zM11.522 8.051l0.446 1.371c0.369-0.316 0.835-0.599 1.441-0.795 0.59-0.192 1.111-0.3 1.582-0.362l-0.43-1.323c-0.476 0.069-1.001 0.18-1.58 0.368-0.578 0.187-1.054 0.449-1.459 0.741zM12.45 10.905l0.446 1.371c0.369-0.316 0.835-0.599 1.441-0.795 0.59-0.192 1.111-0.3 1.582-0.362l-0.43-1.323c-0.476 0.069-1.001 0.18-1.58 0.368-0.579 0.187-1.055 0.45-1.459 0.741zM5.388 13.077l0.43 1.323c0.417-0.226 0.902-0.445 1.492-0.636 0.606-0.197 1.149-0.242 1.633-0.203l-0.446-1.371c-0.499 0.002-1.038 0.070-1.615 0.257-0.579 0.188-1.069 0.406-1.494 0.63zM3.533 7.368l0.43 1.323c0.417-0.226 0.902-0.444 1.492-0.636 0.606-0.197 1.149-0.242 1.633-0.203l-0.445-1.372c-0.499 0.003-1.038 0.070-1.616 0.258-0.579 0.188-1.069 0.406-1.494 0.63zM4.46 10.223l0.43 1.323c0.417-0.226 0.902-0.445 1.492-0.636 0.606-0.197 1.149-0.242 1.633-0.203l-0.445-1.372c-0.499 0.002-1.038 0.070-1.615 0.257-0.579 0.188-1.070 0.407-1.495 0.631zM11.064 1.41c-1.723 0.56-2.623 1.752-3.053 2.559-0.822-0.4-2.25-0.835-3.973-0.275-2.523 0.82-3.969 2.627-3.969 2.627l4.095 12.587c0.126 0.387 0.646 0.477 0.878 0.143 0.499-0.719 1.46-1.658 3.257-2.242 1.718-0.558 2.969 0.054 3.655 0.578 0.272 0.208 0.662 0.060 0.762-0.268 0.252-0.827 0.907-2.040 2.61-2.593 1.799-0.585 3.129-0.389 3.956-0.1 0.385 0.134 0.75-0.242 0.625-0.629l-4.088-12.594c0 0-2.232-0.612-4.755 0.207zM10.951 15.256c-0.819-0.244-1.901-0.358-3.141 0.044-1.251 0.406-2.127 0.949-2.699 1.404l-3.245-9.982c0.358-0.358 1.187-1.042 2.662-1.521 1.389-0.451 2.528-0.065 3.279 0.378l3.144 9.677zM17.845 12.567c-0.731-0.032-1.759 0.044-3.010 0.451-1.24 0.403-2.048 1.132-2.567 1.81l-3.144-9.677c0.346-0.8 1.040-1.782 2.43-2.233 1.474-0.479 2.547-0.413 3.047-0.334l3.244 9.983z"></path>
        </symbol>
        <symbol id="icon-save11" viewBox="0 0 20 20">
            <title>save11</title>
            <path d="M15.173 2h-11.173c-1.101 0-2 0.9-2 2v12c0 1.1 0.899 2 2 2h12c1.101 0 2-0.9 2-2v-10.873l-2.827-3.127zM14 8c0 0.549-0.45 1-1 1h-6c-0.55 0-1-0.451-1-1v-5h8v5zM13 4h-2v4h2v-4z"></path>
        </symbol>
        <symbol id="icon-camera111" viewBox="0 0 20 20">
            <title>camera111</title>
            <path d="M10 8c-1.657 0-3 1.344-3 3s1.343 3 3 3c1.656 0 3-1.344 3-3s-1.344-3-3-3zM18 5h-2.4c-0.33 0-0.686-0.256-0.789-0.57l-0.621-1.861c-0.105-0.313-0.459-0.569-0.79-0.569h-6.8c-0.33 0-0.686 0.256-0.789 0.568l-0.622 1.862c-0.104 0.314-0.459 0.57-0.789 0.57h-2.4c-1.1 0-2 0.9-2 2v9c0 1.1 0.9 2 2 2h16c1.1 0 2-0.9 2-2v-9c0-1.1-0.9-2-2-2zM10 16c-2.762 0-5-2.238-5-5s2.238-5 5-5c2.761 0 5 2.238 5 5s-2.239 5-5 5zM17.5 8.2c-0.387 0-0.7-0.314-0.7-0.701 0-0.385 0.313-0.7 0.7-0.7s0.7 0.314 0.7 0.7c0 0.387-0.313 0.701-0.7 0.701z"></path>
        </symbol>
        <symbol id="icon-image-inverted" viewBox="0 0 20 20">
            <title>image-inverted</title>
            <path d="M18 3h-16c-0.553 0-1 0.447-1 1v12c0 0.552 0.447 1 1 1h16c0.553 0 1-0.448 1-1v-12c0-0.552-0.447-1-1-1zM13.25 6.5c0.69 0 1.25 0.56 1.25 1.25s-0.56 1.25-1.25 1.25-1.25-0.56-1.25-1.25 0.56-1.25 1.25-1.25zM4 14l3.314-7.619 3.769 6.102 3.231-1.605 1.686 3.122h-12z"></path>
        </symbol>
        <symbol id="icon-image11" viewBox="0 0 20 20">
            <title>image11</title>
            <path d="M19 2h-18c-0.553 0-1 0.447-1 1v14c0 0.552 0.447 1 1 1h18c0.553 0 1-0.448 1-1v-14c0-0.552-0.447-1-1-1zM18 16h-16v-12h16v12zM14.315 10.877l-3.231 1.605-3.77-6.101-3.314 7.619h12l-1.685-3.123zM13.25 9c0.69 0 1.25-0.56 1.25-1.25s-0.56-1.25-1.25-1.25-1.25 0.56-1.25 1.25 0.56 1.25 1.25 1.25z"></path>
        </symbol>
        <symbol id="icon-images" viewBox="0 0 20 20">
            <title>images</title>
            <path d="M17.125 6.17l-2.046-5.635c-0.151-0.416-0.595-0.637-0.989-0.492l-13.598 4.963c-0.394 0.144-0.593 0.597-0.441 1.013l2.156 5.941v-3.183c0-1.438 1.148-2.607 2.56-2.607h3.593l4.285-3.008 2.479 3.008h2.001zM19.238 8h-14.471c-0.42 0-0.762 0.334-0.762 0.777v9.42c0.001 0.444 0.343 0.803 0.762 0.803h14.471c0.42 0 0.762-0.359 0.762-0.803v-9.42c0-0.443-0.342-0.777-0.762-0.777zM18 17h-12v-2l1.984-4.018 2.768 3.436 2.598-2.662 3.338-1.205 1.312 3.449v3z"></path>
        </symbol>
        <symbol id="icon-menu1111" viewBox="0 0 20 20">
            <title>menu1111</title>
            <path d="M16.4 9h-12.8c-0.552 0-0.6 0.447-0.6 1s0.048 1 0.6 1h12.8c0.552 0 0.6-0.447 0.6-1s-0.048-1-0.6-1zM16.4 13h-12.8c-0.552 0-0.6 0.447-0.6 1s0.048 1 0.6 1h12.8c0.552 0 0.6-0.447 0.6-1s-0.048-1-0.6-1zM3.6 7h12.8c0.552 0 0.6-0.447 0.6-1s-0.048-1-0.6-1h-12.8c-0.552 0-0.6 0.447-0.6 1s0.048 1 0.6 1z"></path>
        </symbol>
        <symbol id="icon-minus21" viewBox="0 0 20 20">
            <title>minus21</title>
            <path d="M16 10c0 0.553-0.048 1-0.601 1h-10.798c-0.552 0-0.601-0.447-0.601-1s0.049-1 0.601-1h10.799c0.552 0 0.6 0.447 0.6 1z"></path>
        </symbol>
        <symbol id="icon-new" viewBox="0 0 20 20">
            <title>new</title>
            <path d="M18.69 12.344l-1.727-1.538c-0.5-0.445-0.5-1.174 0-1.619l1.727-1.539c0.5-0.445 0.367-0.859-0.296-0.924l-2.29-0.217c-0.662-0.062-1.020-0.633-0.791-1.266l1.215-3.383c0.228-0.635-0.051-0.865-0.619-0.514l-2.701 1.67c-0.568 0.354-1.303 0.16-1.631-0.426l-0.978-1.746c-0.329-0.588-0.872-0.59-1.207-0.008l-0.909 1.58c-0.337 0.585-1.108 0.833-1.713 0.556l-1.6-0.734c-0.608-0.28-1.073 0.042-1.037 0.716l0.086 1.615c0.037 0.674-0.461 1.367-1.104 1.541l-1.545 0.414c-0.642 0.174-0.76 0.68-0.26 1.125l1.727 1.539c0.5 0.445 0.5 1.174 0 1.619l-1.727 1.539c-0.5 0.445-0.368 0.877 0.293 0.957l2.095 0.254c0.661 0.080 1.029 0.67 0.818 1.311l-1.074 3.258c-0.211 0.641 0.090 0.889 0.668 0.555l2.463-1.426c0.578-0.334 1.356-0.15 1.729 0.408l1.022 1.539c0.372 0.559 0.931 0.529 1.24-0.068l0.899-1.733c0.31-0.598 1.052-0.842 1.648-0.543l1.734 0.867c0.598 0.297 1.057-0.010 1.021-0.682l-0.087-1.617c-0.035-0.674 0.461-1.365 1.106-1.539l1.543-0.416c0.644-0.174 0.762-0.68 0.262-1.125zM11 14h-2v-2h2v2zM11 11h-2v-5h2v5z"></path>
        </symbol>
        <symbol id="icon-news" viewBox="0 0 20 20">
            <title>news</title>
            <path d="M14 5h-4v2h4v-2zM14 8h-4v1h4v-1zM9 5h-3v4h3v-4zM9 11h5v-1h-5v1zM12 13h2v-1h-2v1zM14 14h-8v1h8v-1zM11 12h-5v1h5v-1zM8 10h-2v1h2v-1zM17 1h-14c-0.553 0-1 0.447-1 1v16c0 0.552 0.447 1 1 1h14c0.553 0 1-0.448 1-1v-16c0-0.552-0.447-1-1-1zM16 17h-12v-14h12v14z"></path>
        </symbol>
        <symbol id="icon-plus21" viewBox="0 0 20 20">
            <title>plus21</title>
            <path d="M16 10c0 0.553-0.048 1-0.601 1h-4.399v4.399c0 0.552-0.447 0.601-1 0.601s-1-0.049-1-0.601v-4.399h-4.399c-0.552 0-0.601-0.447-0.601-1s0.049-1 0.601-1h4.399v-4.399c0-0.553 0.447-0.601 1-0.601s1 0.048 1 0.601v4.399h4.399c0.553 0 0.601 0.447 0.601 1z"></path>
        </symbol>
        <symbol id="icon-print1" viewBox="0 0 20 20">
            <title>print1</title>
            <path d="M1.501 6h17c0.57 0 0.477-0.608 0.193-0.707-0.285-0.099-3.443-1.293-3.994-1.293h-0.7v-3h-8v3h-0.699c-0.55 0-3.709 1.194-3.993 1.293s-0.377 0.707 0.193 0.707zM19 7h-18c-0.55 0-1 0.45-1 1v5c0 0.551 0.45 1 1 1h2.283l-0.882 5h15.199l-0.883-5h2.283c0.551 0 1-0.449 1-1v-5c0-0.55-0.449-1-1-1zM4.603 17l1.198-7.003h8.399l1.199 7.003h-10.796z"></path>
        </symbol>
        <symbol id="icon-reply-all11" viewBox="0 0 20 20">
            <title>reply-all11</title>
            <path d="M7.225 5.767v-2.681l-7.225 6.456 7.225 6.691v-2.777l-4.225-3.914 4.225-3.775zM12.225 6.953v-3.867l-7.225 6.456 7.225 6.691v-4.357c3.292 0 5.291 0.422 7.775 4.81 0-0.001-0.368-9.733-7.775-9.733z"></path>
        </symbol>
        <symbol id="icon-reply111" viewBox="0 0 20 20">
            <title>reply111</title>
            <path d="M19 16.685c0 0-2.225-9.732-11-9.732v-3.984l-7 6.573 7 6.69v-4.357c4.763-0.001 8.516 0.421 11 4.81z"></path>
        </symbol>
        <symbol id="icon-sound-mix" viewBox="0 0 20 20">
            <title>sound-mix</title>
            <path d="M5 1.6c0-0.553-0.448-0.6-1-0.6-0.553 0-1 0.047-1 0.6v8.4h2v-8.4zM3 18.4c0 0.551 0.447 0.6 1 0.6 0.552 0 1-0.049 1-0.6v-3.4h-2v3.4zM6.399 11h-4.8c-0.553 0-0.599 0.448-0.599 1v1c0 0.553 0.046 1 0.599 1h4.801c0.55 0 0.6-0.447 0.6-1v-1c0-0.552-0.050-1-0.601-1zM18.399 12h-4.801c-0.552 0-0.598 0.448-0.598 1v1c0 0.553 0.046 1 0.599 1h4.801c0.55 0 0.6-0.447 0.6-1v-1c0-0.552-0.050-1-0.601-1zM13 7c0-0.552-0.050-1-0.601-1h-4.8c-0.553 0-0.599 0.448-0.599 1v1c0 0.553 0.046 1 0.599 1h4.801c0.55 0 0.6-0.447 0.6-1v-1zM11 1.6c0-0.553-0.448-0.6-1-0.6-0.553 0-1 0.047-1 0.6v3.4h2v-3.4zM9 18.4c0 0.551 0.447 0.6 1 0.6 0.552 0 1-0.049 1-0.6v-8.4h-2v8.4zM17 1.6c0-0.553-0.448-0.6-1-0.6-0.553 0-1 0.047-1 0.6v9.4h2v-9.4zM15 18.4c0 0.551 0.447 0.6 1 0.6 0.552 0 1-0.049 1-0.6v-2.4h-2v2.4z"></path>
        </symbol>
        <symbol id="icon-stopwatch" viewBox="0 0 20 20">
            <title>stopwatch</title>
            <path d="M7.376 6.745c-0.447 0.275 1.197 4.242 1.598 4.888 0.35 0.569 1.093 0.742 1.658 0.394 0.568-0.352 0.745-1.094 0.395-1.66-0.397-0.648-3.205-3.898-3.651-3.622zM7.041 2.402c0.928-0.323 1.922-0.502 2.959-0.502s2.031 0.179 2.959 0.502c0.329 0.114 0.765-0.115 0.572-0.611-0.141-0.36-0.277-0.712-0.332-0.855-0.131-0.339-0.6-0.619-0.804-0.665-0.772-0.174-1.572-0.271-2.395-0.271s-1.623 0.097-2.396 0.271c-0.204 0.046-0.672 0.326-0.803 0.665-0.055 0.143-0.192 0.495-0.332 0.855-0.193 0.496 0.243 0.726 0.572 0.611zM19.098 3.186c-0.192-0.23-0.396-0.455-0.613-0.672-0.216-0.217-0.441-0.42-0.67-0.613-0.153-0.129-0.603-0.234-0.888 0.051s-1.648 1.647-1.648 1.647c0.402 0.288 0.793 0.605 1.155 0.966s0.677 0.752 0.966 1.155c0 0 1.363-1.362 1.647-1.647 0.286-0.286 0.181-0.735 0.051-0.887zM10 2.9c-4.475 0-8.101 3.626-8.101 8.1s3.626 8.101 8.101 8.101c4.473 0 8.1-3.626 8.1-8.101 0-4.473-3.627-8.1-8.1-8.1zM10 17.101c-3.368 0-6.1-2.731-6.1-6.1s2.731-6.1 6.1-6.1c3.369 0 6.101 2.731 6.101 6.1s-2.732 6.1-6.101 6.1z"></path>
        </symbol>
    </defs>
</svg>